<svg xmlns="http://www.w3.org/2000/svg" width="118" height="143" viewBox="0 0 118 143">
    <defs>
        <radialGradient id="a" cx="49.915%" cy="48.685%" r="80.668%" fx="49.915%" fy="48.685%" gradientTransform="matrix(.56925 0 0 1 .215 0)">
            <stop offset="0%" stop-color="#ACBACA"/>
            <stop offset="100%" stop-color="#ACBACA" stop-opacity="0"/>
        </radialGradient>
        <filter id="b" width="116.9%" height="129.7%" x="-8.4%" y="-14.8%" filterUnits="objectBoundingBox">
            <feGaussianBlur in="SourceGraphic" stdDeviation="3.6"/>
        </filter>
    </defs>
    <g fill="none" fill-rule="evenodd">
        <path fill="url(#a)" fill-rule="nonzero" d="M125.808 1.293c8.212 4.38-8.283 21.244-36.647 37.476L67.44 51.209C39.071 67.433 9.573 76.628 1.884 71.695c-7.688-4.933 9.314-22.175 37.797-38.2L59.119 22.52c28.455-16.03 58.465-25.61 66.689-21.228z" filter="url(#b)" opacity=".7" transform="translate(-5 65.444)"/>
        <path fill="#B8B4B4" d="M98.573 79.679L80.636 69.305l.545.33.545.336.551.34.556.346.567.347.572.351L101.91 81.73l-.572-.352-.567-.346-.556-.346-.55-.34-.546-.336z"/>
        <path fill="#ECF1F6" d="M104.88 13.749l-8.413-4.863-.168-.043-.167-.027-.178-.016-.184-.006-.189.011-.194.027-.194.033-.2.048-.205.065-.211.076-.21.092-.217.108-.216.119-1.646.952-1.647.952-1.652.952-1.647.952-1.647.952-1.647.951-1.647.952-1.652.952-1.647.952-1.647.952-1.647.952-1.646.952-1.653.957-1.646.947-1.647.957-1.647.952-1.652.952-1.647.952-1.647.952-1.647.952-1.647.951-1.652.952-1.647.952-1.647.952-1.646.952-1.647.952-1.653.952-1.646.952-1.647.952-1.647.952-1.647.957-1.652.952-.216.13-.216.14-.21.157-.211.162-.2.173-.205.184-.195.19-.194.2-.189.205-.184.217-.172.221-.173.228-.167.232-.162.238-.152.243-.15.25-.141.253-.13.255-.13.254-.118.265-.108.26-.103.265-.092.265-.086.27-.076.265-.07.265-.054.265-.048.265-.038.265-.027.26-.016.26-.006.254v1.07l-.016 42.712v.097l.005.103.006.097.01.098.017.097.016.092.016.097.027.092.022.092.032.092.027.087.038.086.038.087.038.086.043.081.043.087.049.076.054.08.054.076.054.076.059.076.06.07.064.07.065.065.07.07 8.413 4.863-.065-.065-.07-.065-.065-.07-.06-.076-.059-.07-.054-.076-.054-.076-.049-.08-.048-.082-.049-.08-.043-.082-.038-.087-.038-.086-.032-.087-.032-.092-.027-.092-.027-.086-.022-.097-.022-.092-.016-.098-.01-.092-.011-.102-.011-.098-.006-.097v-.103l.017-42.706v-1.07l.005-.26.016-.255.027-.265.038-.26.049-.264.059-.265.065-.265.075-.27.087-.266.092-.265.102-.265.114-.265.118-.26.125-.259.135-.254.14-.249.146-.249.156-.243.157-.238.167-.233.173-.227.178-.222.184-.216.189-.206.189-.2.2-.189.2-.184.205-.173.205-.162.216-.157.21-.14.222-.136 1.646-.952 1.647-.952 1.647-.952 1.652-.951 1.647-.952 1.647-.952 1.647-.952 1.647-.952 1.652-.952 1.647-.952 1.647-.952 1.646-.952 1.647-.952 1.653-.952 1.646-.957 1.647-.952 1.647-.952 1.647-.952 1.652-.951 1.647-.952 1.647-.952 1.647-.952 1.647-.952 1.652-.952 1.647-.952 1.646-.952L94.107 19l1.652-.952 1.647-.952 1.647-.951 1.647-.952 1.647-.952.221-.125.21-.102.217-.092.205-.076.205-.065.2-.049.2-.038.189-.021.189-.011.183.005.178.017.173.027z"/>
        <path fill="#BCCADA" d="M36.954 61.425l-.01 29.558v.097l.004.103.006.097.01.098.017.097.016.092.016.097.027.092.022.092.032.092.027.087.038.086.038.087.038.086.043.081.043.087.049.076.054.08.054.076.054.076.059.076.06.07.064.07.065.065.07.07 8.413 4.863-.065-.065-.07-.065-.065-.07-.06-.076-.059-.07-.054-.076-.054-.076-.049-.08-.048-.082-.049-.08-.043-.082-.038-.087-.038-.086-.032-.087-.032-.092-.027-.092-.027-.086-.022-.097-.022-.092-.016-.098-.01-.092-.011-.102-.011-.098-.006-.097v-.103l.011-34.42z"/>
        <path fill="#D9E2ED" d="M82.471 79.473c10.178-5.29 14.147-.692 20.621 2.943.06-5.366.194-10.358-.972-14.944l.205-.12c2.333-1.346 4.239-4.65 4.239-7.355v-43.3c0-2.705-1.9-3.787-4.239-2.462L49.594 44.707c-2.338 1.352-4.244 4.657-4.244 7.356v43.809c0 1.046.557 2.013 1.46 2.537a2.922 2.922 0 0 0 2.924.005l32.737-18.94z"/>
        <path fill="#00B075" d="M96.326 52.398L55.61 75.925v4.024l40.712-23.527zM93.249 42.679L55.614 64.42v4.03L93.25 46.703zM96.332 30.072L55.62 53.599v4.024L96.332 34.1z"/>
        <path fill="#ACBACA" d="M19.422 100.556a60.717 60.717 0 0 1 1.944-11.282l-2.463 1.422c-1.765 1.017-3.207.19-3.207-1.855v-41.97a7.115 7.115 0 0 1 3.207-5.566l51.765-29.91c1.766-1.021 3.202-.183 3.202 1.861V55.19a7.033 7.033 0 0 1-3.24 5.592c-15.987 8.897-42.801 22.376-51.208 39.775z"/>
        <path fill="#ECF1F6" d="M17.095 94.736l-4.698-2.72.016-45.578.006-.27.016-.271.032-.276.038-.281.049-.281.06-.276.075-.287.08-.281.087-.281.103-.282.108-.28.113-.277.13-.275.13-.276.14-.27.15-.266.157-.26.162-.259.168-.254.178-.244.183-.243.19-.232.188-.228.2-.216.205-.216.206-.2.216-.19.216-.184.22-.173.228-.167.226-.152.227-.135 1.744-1.011 1.744-1.006 1.744-1.006 1.744-1.012 1.744-1.006 1.744-1.006 1.744-1.011 1.744-1.006 1.745-1.006 1.744-1.012 1.744-1.006 1.744-1.006 1.744-1.006 1.744-1.011 1.744-1.006 1.744-1.006 1.744-1.011 1.744-1.006 1.744-1.006 1.744-1.012 1.744-1.006 1.744-1.006 1.744-1.006 1.744-1.011 1.744-1.006 1.744-1.006 1.744-1.011 1.744-1.006 1.744-1.006 1.744-1.012 1.744-1.006L72.71 6.41l.227-.13.227-.108.226-.097.222-.081.216-.065.21-.054.211-.038.2-.027.2-.011.194.005.189.017.184.027.172.048.168.054.167.07L66.424.645l-.162-.07-.167-.055-.178-.043-.184-.032-.189-.017-.189-.005-.2.01-.205.028-.205.038-.216.054-.216.065-.221.08-.222.098-.227.114-.232.124-1.744 1.006-1.744 1.011-1.744 1.006-1.744 1.006-1.744 1.006-1.744 1.012-1.744 1.006-1.744 1.006-1.744 1.011-1.744 1.006-1.739 1.006-1.75 1.012-1.743 1.006L39 15.139l-1.75 1.006-1.738 1.011-1.744 1.006-1.744 1.006-1.744 1.011-1.744 1.006-1.744 1.006-1.744 1.012-1.744 1.006-1.744 1.006-1.744 1.006-1.744 1.011-1.744 1.006-1.744 1.006-1.744 1.011-1.744 1.006-1.744 1.006-1.744 1.012-.232.135-.227.152-.222.167-.221.173-.216.184-.216.19-.205.205-.205.21-.2.217-.194.227-.19.233-.178.243-.178.244-.173.254-.162.26-.156.26-.146.264-.14.27-.135.276-.124.276-.12.276-.107.281-.097.282-.092.28-.081.282-.07.287-.06.281-.054.276-.038.281-.027.276-.021.27-.006.27L3.1 86.89l.006.26.016.253.032.244.038.232.049.222.064.211.07.2.082.19.086.172.097.168.114.157.113.14.124.136.135.119.14.103 3.154 1.828-.022.135-.08.562-.076.557-.07.547-.065.546-.054.54-.054.542-.044.535-.043.53-.038.525-.027.524-.032.525-.022.52-.016.519-.016.513-.016.514-.006.514-.01.514v.514l-.006.513v1.028l.006.514v.514l.005.519.005.52.006.518.005.525.011.525 9.293 5.376-.006-.53-.005-.52-.006-.519-.005-.519-.005-.52-.006-.513v-.514l-.005-.514.005-.514v-.513l.006-.514.005-.514.01-.514.012-.514.016-.519.021-.514.022-.519.027-.524.032-.525.038-.525.038-.53.049-.535.048-.541.06-.54.064-.547.065-.552.076-.552.086-.562.086-.568.098-.568.108-.579z"/>
        <path fill="#BCCBCF" d="M17.095 94.736l-3.202.525-8.05-4.651 1.576.914-.022.135-.08.562-.076.557-.07.547-.065.546-.054.54-.054.542-.044.535-.043.53-.038.525-.027.524-.032.525-.022.52-.016.519-.016.513-.016.514-.006.514-.01.514v.514l-.006.513v1.028l.006.514v.514l.005.519.005.52.006.518.005.525.011.525 9.293 5.376-.006-.53-.005-.52-.006-.519-.005-.519-.005-.52-.006-.513v-.514l-.005-.514.005-.514v-.513l.006-.514.005-.514.01-.514.012-.514.016-.519.021-.514.022-.519.027-.524.032-.525.038-.525.038-.53.049-.535.048-.541.06-.54.064-.547.065-.552.076-.552.086-.562.086-.568.098-.568.108-.579z"/>
        <path fill="#C5D3E3" d="M77.175 55.275V9.005c0-2.855-2.014-4.024-4.482-2.596L16.9 38.655c-2.473 1.428-4.487 4.922-4.487 7.783v45.827c0 2.855 2.009 4.024 4.482 2.596l.216-.125c-1.237 6.269-1.08 11.396-1.042 17.016 1.8-3.087 3.589-6.177 5.367-9.27C32.775 82.68 54.988 72.733 72.574 63.133a8.728 8.728 0 0 0 3.24-3.353 8.908 8.908 0 0 0 1.36-4.506z"/>
        <path fill="#00B075" d="M23.25 71.685l27.737-16.03v4.261L23.245 75.942zM23.25 59.516L66.338 34.62v4.262L23.25 63.778zM23.255 48.06l38.067-21.996v4.262L23.255 52.317z"/>
        <path fill="#ACBACA" d="M13.909 41.716L4.61 36.34l-.022.033-.156.26-.146.264-.14.27-.135.276-.124.276-.12.276-.107.281-.097.282-.092.28-.081.282-.07.287-.06.281-.054.276-.038.281-.027.276-.021.27-.006.27L3.1 86.89l.006.26.016.253.032.244.038.232.049.222.064.211.07.2.082.19.086.172.103.168.108.157.113.14.124.136.135.119.14.103 3.154 1.828-.022.135-.08.562-.076.557-.07.547-.065.546-.054.54-.054.542-.044.535-.043.53-.038.525-.027.524-.032.525-.022.52-.016.519-.016.513-.016.514-.006.52-.01.508v.514l-.006.513v1.028l.006.514v.514l.005.519.005.52.006.518.005.525.011.525 9.293 5.376-.006-.53-.005-.52-.006-.524-.005-.514-.005-.52-.006-.513v-2.055l.006-.514.005-.514.01-.514.012-.514.016-.513.021-.52.022-.519.027-.524.032-.525.038-.525.038-.535.049-.53.048-.541.06-.54.059-.547.07-.552.076-.552.086-.562.086-.568.098-.568.108-.579.108-.584-4.698-2.72.016-45.578.006-.27.016-.271.032-.276.038-.281.049-.281.064-.276.07-.287.082-.281.086-.281.103-.282.108-.28.113-.277.13-.275.13-.276.14-.27.15-.266.157-.26z"/>
    </g>
</svg>
