<?xml version="1.0" encoding="UTF-8"?>
<svg xmlns="http://www.w3.org/2000/svg" xmlns:xlink="http://www.w3.org/1999/xlink" viewBox="0 0 26 26" version="1.1" width="26px" height="26px">
<g id="surface1">
<path style=" " d="M 2 2 L 2 20 L 17 20 L 24 26 L 24 2 Z M 13 6 C 14.105469 6 15 6.894531 15 8 C 15 9.105469 14.105469 10 13 10 C 11.894531 10 11 9.105469 11 8 C 11 6.894531 11.894531 6 13 6 Z M 8 14.296875 L 8 15 L 5 15 C 5 15 5 14.933594 5 14.5625 C 5 14.191406 5.703125 13.125 7.5 13.125 C 7.820313 13.125 8.097656 13.167969 8.347656 13.226563 C 8.121094 13.617188 8 13.996094 8 14.296875 Z M 7.5 12 C 6.671875 12 6 11.328125 6 10.5 C 6 9.671875 6.671875 9 7.5 9 C 8.328125 9 9 9.671875 9 10.5 C 9 11.328125 8.328125 12 7.5 12 Z M 17 15 L 9 15 C 9 15 9 14.875 9 14.296875 C 9 13.71875 10.125 12 13 12 C 15.875 12 17 13.703125 17 14.296875 C 17 14.890625 17 15 17 15 Z M 17 10.5 C 17 9.671875 17.671875 9 18.5 9 C 19.328125 9 20 9.671875 20 10.5 C 20 11.328125 19.328125 12 18.5 12 C 17.671875 12 17 11.328125 17 10.5 Z M 21 15 L 18 15 L 18 14.296875 C 18 13.996094 17.878906 13.617188 17.652344 13.226563 C 17.902344 13.167969 18.179688 13.125 18.5 13.125 C 20.296875 13.125 21 14.1875 21 14.5625 C 21 14.933594 21 15 21 15 Z "/>
</g>
</svg>
