<svg id="svg" version="1.1" width="400" height="400" viewBox="0 0 400 400" xmlns="http://www.w3.org/2000/svg" xmlns:xlink="http://www.w3.org/1999/xlink" ><g id="svgg"><path id="path0" d="M110.000 11.511 C 110.000 11.609,110.100 11.789,110.223 11.912 C 110.371 12.059,110.427 22.058,110.390 41.456 L 110.333 70.778 109.468 70.725 C 108.618 70.674,108.610 70.680,109.003 71.114 C 109.401 71.554,109.360 71.556,97.014 71.556 C 84.812 71.556,84.623 71.549,84.509 71.111 C 84.445 70.867,84.304 70.667,84.196 70.667 C 83.935 70.667,83.947 70.969,84.220 71.242 C 84.355 71.378,84.462 74.943,84.497 80.564 L 84.556 89.667 97.134 89.724 C 108.995 89.778,109.733 89.805,110.080 90.188 C 110.416 90.559,110.443 91.922,110.390 105.908 L 110.333 121.222 109.468 121.170 C 108.618 121.118,108.610 121.125,109.003 121.559 C 109.401 121.999,109.360 122.000,97.014 122.000 C 84.812 122.000,84.623 121.993,84.509 121.556 C 84.445 121.311,84.304 121.111,84.196 121.111 C 83.935 121.111,83.947 121.414,84.220 121.686 C 84.355 121.822,84.462 125.387,84.497 131.009 L 84.556 140.111 97.134 140.168 C 108.998 140.223,109.733 140.249,110.080 140.632 C 110.415 141.003,110.443 142.209,110.391 154.131 L 110.333 167.222 109.468 167.170 C 108.618 167.118,108.610 167.125,109.003 167.559 C 109.401 167.999,109.360 168.000,97.014 168.000 C 84.812 168.000,84.623 167.993,84.509 167.556 C 84.445 167.311,84.304 167.111,84.196 167.111 C 83.935 167.111,83.947 167.414,84.220 167.686 C 84.355 167.822,84.462 171.387,84.497 177.009 L 84.556 186.111 97.134 186.168 C 108.964 186.222,109.734 186.250,110.077 186.629 C 110.411 186.998,110.447 189.321,110.499 213.683 L 110.556 240.333 123.605 240.391 L 136.654 240.448 136.468 239.946 C 136.300 239.492,136.014 239.408,133.433 239.060 C 131.865 238.849,130.477 238.632,130.347 238.578 C 129.889 238.387,131.695 238.469,134.056 238.746 L 136.444 239.026 136.444 237.946 C 136.444 237.353,136.287 236.562,136.095 236.191 C 135.902 235.819,135.793 235.466,135.852 235.407 C 135.911 235.348,136.044 235.532,136.146 235.817 C 136.251 236.105,136.382 225.455,136.444 211.741 C 136.555 187.348,136.578 186.577,137.200 187.092 C 137.463 187.311,137.534 187.266,137.594 186.846 L 137.667 186.333 178.042 186.277 L 218.418 186.221 218.969 186.722 C 219.272 186.997,226.891 199.022,235.900 213.444 C 244.909 227.867,252.433 239.842,252.619 240.056 C 252.935 240.418,253.907 240.444,267.076 240.444 L 281.194 240.444 281.708 240.928 C 281.991 241.193,282.222 241.305,282.222 241.175 C 282.222 241.046,281.971 240.775,281.664 240.574 L 281.106 240.208 281.164 213.678 C 281.222 187.383,281.243 186.575,281.866 187.092 C 282.130 187.311,282.201 187.266,282.261 186.846 L 282.333 186.333 295.762 186.276 L 309.190 186.219 309.706 186.704 C 309.990 186.970,310.222 187.083,310.222 186.953 C 310.222 186.824,309.972 186.554,309.667 186.354 L 309.111 185.990 309.111 176.995 L 309.111 168.000 295.472 168.000 C 283.055 168.000,281.805 167.967,281.527 167.633 C 281.194 167.231,281.054 141.316,281.384 140.987 C 281.472 140.898,281.690 140.946,281.866 141.092 C 282.130 141.311,282.201 141.266,282.261 140.846 L 282.333 140.333 295.762 140.276 L 309.190 140.219 309.706 140.704 C 309.990 140.970,310.222 141.083,310.222 140.953 C 310.222 140.824,309.972 140.554,309.667 140.354 L 309.111 139.990 309.111 130.995 L 309.111 122.000 295.472 122.000 C 283.055 122.000,281.805 121.967,281.527 121.633 C 281.194 121.231,281.053 90.873,281.384 90.542 C 281.472 90.454,281.690 90.501,281.866 90.648 C 282.130 90.866,282.201 90.822,282.261 90.402 L 282.333 89.889 295.762 89.832 L 309.190 89.774 309.706 90.259 C 309.990 90.526,310.222 90.638,310.222 90.509 C 310.222 90.379,309.972 90.110,309.667 89.909 L 309.111 89.545 309.111 80.552 L 309.111 71.559 295.395 71.502 L 281.680 71.444 281.399 70.889 C 281.177 70.451,281.112 64.598,281.093 43.222 C 281.064 10.932,281.156 12.108,278.879 15.104 C 278.225 15.963,277.657 16.667,277.615 16.667 C 277.473 16.667,277.966 15.888,278.872 14.682 C 280.308 12.770,280.256 12.744,276.120 13.325 C 271.569 13.964,271.003 13.845,275.166 13.125 C 277.091 12.792,278.733 12.452,278.814 12.371 C 278.896 12.289,273.637 12.222,267.127 12.222 C 255.479 12.222,255.290 12.215,255.175 11.778 C 255.112 11.533,254.971 11.333,254.863 11.333 C 254.600 11.333,254.614 11.636,254.890 11.912 C 255.037 12.059,255.094 22.058,255.056 41.456 L 255.000 70.778 254.135 70.725 C 253.285 70.674,253.277 70.680,253.669 71.114 C 254.170 71.667,179.550 71.831,178.838 71.278 C 178.641 71.125,170.160 57.850,159.990 41.778 C 149.821 25.706,141.388 12.482,141.250 12.392 C 141.113 12.302,134.166 12.227,125.813 12.226 C 110.813 12.222,110.624 12.217,110.509 11.778 C 110.397 11.351,110.000 11.143,110.000 11.511 M136.938 47.500 C 137.125 47.714,138.409 50.239,139.789 53.111 C 141.170 55.983,143.638 60.920,145.273 64.081 C 148.459 70.239,148.640 70.821,147.336 70.714 C 146.722 70.664,146.618 70.707,146.836 70.925 C 147.413 71.502,146.955 71.556,141.472 71.556 C 134.634 71.556,135.345 72.093,135.096 66.728 C 134.989 64.433,134.737 59.436,134.534 55.622 C 134.146 48.306,134.166 47.882,134.888 48.111 C 135.227 48.218,135.333 48.151,135.333 47.830 C 135.333 47.017,136.335 46.811,136.938 47.500 M159.245 90.096 C 159.495 90.272,160.436 91.697,161.337 93.263 C 164.081 98.036,169.637 107.323,173.716 113.954 C 177.848 120.671,178.097 121.275,176.682 121.160 C 175.929 121.099,175.925 121.104,176.328 121.549 L 176.736 122.000 156.958 122.000 C 138.398 122.000,137.159 121.976,136.843 121.611 C 136.489 121.204,135.788 91.189,136.119 90.653 C 136.216 90.497,136.362 90.506,136.572 90.680 C 136.819 90.885,136.926 90.820,137.102 90.357 L 137.322 89.778 148.056 89.778 C 157.017 89.778,158.865 89.830,159.245 90.096 M254.745 90.186 C 255.083 90.559,255.109 91.895,255.057 105.908 L 255.000 121.222 254.135 121.170 C 253.285 121.118,253.277 121.125,253.669 121.559 C 254.068 121.999,254.007 122.000,232.513 122.000 C 212.261 122.000,210.937 121.976,210.621 121.611 C 210.436 121.397,206.070 114.561,200.920 106.419 C 191.422 91.406,190.776 90.240,192.144 90.584 C 192.559 90.688,192.686 90.656,192.576 90.477 C 192.157 89.799,193.100 89.778,223.534 89.778 C 253.178 89.778,254.390 89.794,254.745 90.186 M190.167 140.611 C 190.601 140.997,206.011 165.532,206.287 166.278 C 206.568 167.039,206.229 167.384,205.361 167.221 C 204.562 167.071,204.562 167.071,204.982 167.536 L 205.402 168.000 171.284 168.000 C 139.818 168.000,137.142 167.971,136.861 167.633 C 136.527 167.231,136.387 141.316,136.717 140.987 C 136.806 140.898,137.031 140.952,137.217 141.107 C 137.501 141.342,137.556 141.317,137.556 140.953 C 137.556 140.714,137.622 140.452,137.704 140.370 C 138.100 139.974,189.716 140.211,190.167 140.611 M255.013 140.538 C 255.416 140.832,255.454 141.270,255.595 147.260 C 255.678 150.784,255.862 156.638,256.003 160.269 C 256.286 167.544,256.299 167.439,255.144 167.222 L 254.340 167.071 254.760 167.536 L 255.180 168.000 246.847 168.000 C 239.185 168.000,238.487 167.969,238.181 167.611 C 237.999 167.397,236.966 165.622,235.886 163.667 C 233.564 159.460,228.472 150.661,225.471 145.667 C 223.182 141.858,222.812 140.749,223.922 141.028 C 224.336 141.132,224.464 141.100,224.353 140.921 C 224.267 140.781,224.258 140.567,224.333 140.444 C 224.573 140.057,254.480 140.148,255.013 140.538 M256.996 186.663 C 257.428 187.139,258.201 195.104,258.291 200.000 L 258.333 202.333 257.748 202.295 C 257.263 202.263,257.182 202.334,257.278 202.702 C 257.535 203.685,256.165 203.108,255.612 202.000 C 249.518 189.793,248.260 186.723,249.478 187.028 C 249.892 187.132,250.020 187.100,249.909 186.921 C 249.377 186.061,256.226 185.811,256.996 186.663 M138.056 236.111 C 138.059 236.600,138.104 236.774,138.157 236.497 C 138.210 236.221,138.208 235.821,138.153 235.609 C 138.097 235.396,138.054 235.622,138.056 236.111 M138.016 238.426 C 138.100 239.129,138.381 239.393,138.482 238.864 C 138.555 238.485,138.492 238.296,138.295 238.296 C 138.133 238.296,138.007 238.355,138.016 238.426 M137.914 240.103 C 137.250 241.118,137.574 241.014,138.416 239.944 C 138.584 239.730,138.620 239.556,138.497 239.556 C 138.374 239.556,138.112 239.802,137.914 240.103 " stroke="none" fill="#04a353" fill-rule="evenodd"></path><path id="path1" d="M99.556 7.566 C 81.118 8.249,81.135 8.211,81.118 49.154 C 81.114 58.649,81.025 66.471,80.921 66.536 C 80.816 66.601,78.091 66.752,74.865 66.872 C 56.497 67.558,55.445 68.859,55.445 90.889 C 55.445 112.918,56.497 114.220,74.865 114.905 C 81.432 115.151,81.111 115.089,81.111 116.111 C 81.111 117.134,81.432 117.072,74.865 117.317 C 56.497 118.002,55.445 119.304,55.445 141.333 C 55.445 156.322,56.087 159.662,59.548 162.660 C 61.290 164.170,61.290 164.497,59.548 166.006 C 56.087 169.005,55.445 172.344,55.445 187.333 C 55.445 209.363,56.497 210.664,74.865 211.350 C 78.091 211.470,80.816 211.622,80.921 211.686 C 81.025 211.751,81.114 218.423,81.118 226.513 C 81.128 246.903,81.469 254.336,82.560 257.932 C 82.738 258.520,82.885 259.025,82.886 259.056 C 82.888 259.086,81.239 259.111,79.222 259.111 L 75.556 259.111 75.556 265.426 C 75.556 268.900,75.616 271.900,75.690 272.093 C 75.811 272.408,77.115 272.444,88.135 272.444 L 100.444 272.444 100.444 268.966 L 100.444 265.488 102.944 265.632 C 104.319 265.711,106.180 265.776,107.079 265.777 C 108.547 265.778,108.698 265.818,108.559 266.167 C 108.474 266.381,107.935 267.906,107.362 269.556 L 106.318 272.556 111.805 272.493 C 118.064 272.421,117.469 272.646,118.333 270.023 L 118.947 268.156 119.624 270.300 L 120.300 272.444 125.817 272.444 C 130.216 272.444,131.333 272.385,131.333 272.153 C 131.333 271.993,130.783 270.288,130.111 268.363 C 129.439 266.439,128.890 264.795,128.891 264.710 C 128.892 264.625,129.622 264.334,130.513 264.064 C 135.247 262.627,136.945 258.677,137.226 248.444 L 137.320 245.000 136.673 249.889 C 136.317 252.578,136.019 254.803,136.013 254.833 C 135.900 255.331,135.624 254.659,135.693 254.056 C 136.224 249.428,137.136 242.236,137.239 241.864 C 137.324 241.558,137.251 241.349,137.031 241.265 C 136.661 241.123,135.918 241.904,134.479 243.945 C 134.198 244.342,133.751 244.784,133.485 244.926 C 132.976 245.197,133.126 244.909,133.944 244.041 C 134.097 243.879,134.222 243.670,134.222 243.577 C 134.222 243.484,134.558 243.066,134.968 242.648 C 135.378 242.231,135.890 241.614,136.105 241.278 L 136.496 240.667 123.494 240.667 C 111.843 240.667,110.478 240.630,110.357 240.315 C 110.283 240.122,110.222 228.087,110.222 213.572 C 110.222 188.286,110.205 187.165,109.816 186.812 C 109.448 186.479,108.232 186.444,96.951 186.444 C 85.795 186.444,84.478 186.408,84.357 186.093 C 84.283 185.900,84.222 181.772,84.222 176.920 C 84.222 169.296,84.175 168.032,83.876 167.605 L 83.530 167.111 96.446 167.111 C 104.925 167.111,109.510 167.032,109.792 166.881 C 110.445 166.532,110.467 141.402,109.816 140.812 C 109.448 140.479,108.232 140.444,96.951 140.444 C 85.795 140.444,84.478 140.408,84.357 140.093 C 84.283 139.900,84.222 135.772,84.222 130.920 C 84.222 123.296,84.175 122.032,83.876 121.605 L 83.530 121.111 96.446 121.111 C 104.925 121.111,109.510 121.032,109.792 120.881 C 110.446 120.531,110.468 90.958,109.816 90.368 C 109.448 90.035,108.232 90.000,96.951 90.000 C 85.795 90.000,84.478 89.963,84.357 89.648 C 84.283 89.455,84.222 85.327,84.222 80.476 C 84.222 72.851,84.175 71.587,83.876 71.161 L 83.530 70.667 96.446 70.667 C 104.925 70.667,109.510 70.588,109.792 70.437 C 110.395 70.114,110.477 12.685,109.876 11.827 L 109.530 11.333 125.821 11.337 L 142.111 11.341 160.888 41.004 L 179.666 70.667 216.847 70.667 C 242.053 70.667,254.168 70.593,254.459 70.437 C 255.062 70.114,255.144 12.685,254.543 11.827 L 254.197 11.333 266.487 11.332 L 278.778 11.331 278.111 10.785 C 277.744 10.484,277.363 10.235,277.263 10.230 C 277.163 10.226,276.763 9.981,276.374 9.686 C 273.986 7.878,261.871 6.991,246.722 7.517 C 232.330 8.016,229.122 9.167,227.465 14.424 C 226.121 18.690,225.962 21.652,225.806 45.333 L 225.667 66.556 202.080 66.612 L 178.494 66.669 160.883 38.834 C 151.197 23.525,143.120 10.825,142.935 10.611 C 142.659 10.292,142.222 10.222,140.512 10.222 C 138.877 10.222,138.242 10.128,137.569 9.785 C 133.504 7.711,118.799 6.852,99.556 7.566 M278.492 10.778 C 278.942 11.083,279.515 11.333,279.766 11.333 C 280.104 11.333,280.222 11.190,280.222 10.778 C 280.222 10.250,280.159 10.222,278.948 10.222 L 277.675 10.222 278.492 10.778 M280.444 10.429 C 280.444 10.759,281.127 11.350,281.350 11.212 C 282.069 10.767,282.003 10.222,281.230 10.222 C 280.798 10.222,280.444 10.315,280.444 10.429 M282.090 10.699 C 281.786 11.042,281.745 11.203,281.944 11.273 C 282.097 11.327,282.222 11.523,282.222 11.709 C 282.222 11.926,282.348 11.999,282.574 11.913 C 282.767 11.838,283.017 11.778,283.129 11.778 C 283.427 11.778,283.379 10.801,283.067 10.489 C 282.701 10.123,282.578 10.149,282.090 10.699 M282.500 12.369 C 282.018 12.564,282.188 13.482,282.778 13.868 L 283.333 14.232 283.333 13.227 C 283.333 12.238,283.191 12.091,282.500 12.369 M282.222 42.195 L 282.222 70.667 296.222 70.667 L 310.222 70.667 310.222 80.667 C 310.222 91.079,310.195 91.372,309.333 90.333 C 308.857 89.760,283.415 89.854,282.722 90.432 L 282.222 90.849 282.222 105.980 L 282.222 121.111 296.222 121.111 L 310.222 121.111 310.222 131.111 C 310.222 141.523,310.195 141.816,309.333 140.778 C 308.857 140.204,283.415 140.298,282.722 140.876 L 282.222 141.293 282.222 154.202 L 282.222 167.111 296.222 167.111 L 310.222 167.111 310.222 177.111 C 310.222 187.523,310.195 187.816,309.333 186.778 C 308.857 186.204,283.415 186.298,282.722 186.876 L 282.222 187.293 282.222 214.313 C 282.222 242.652,282.241 242.093,281.335 241.002 C 281.097 240.715,279.126 240.662,266.810 240.613 L 252.560 240.556 235.954 214.000 C 226.820 199.394,219.089 187.219,218.772 186.944 L 218.197 186.444 178.376 186.452 C 139.757 186.459,138.540 186.472,138.056 186.876 L 137.556 187.293 137.573 212.591 C 137.583 226.505,137.630 237.789,137.677 237.667 C 138.290 236.097,138.666 229.740,138.666 220.941 L 138.667 211.549 165.944 211.608 C 187.983 211.655,193.329 211.723,193.778 211.959 C 194.151 212.156,199.120 219.905,208.953 235.626 L 223.573 259.000 220.120 259.061 L 216.667 259.122 216.667 265.432 C 216.667 268.902,216.727 271.900,216.802 272.093 C 217.006 272.625,227.661 272.625,227.865 272.093 C 227.939 271.900,228.000 269.839,228.000 267.514 C 228.000 263.575,228.027 263.297,228.389 263.443 C 231.434 264.678,237.078 265.548,242.081 265.554 C 243.641 265.555,243.817 265.598,243.717 265.944 C 243.655 266.158,243.115 267.733,242.517 269.444 L 241.430 272.556 246.916 272.493 C 253.175 272.421,252.580 272.646,253.444 270.023 L 254.059 268.156 254.735 270.300 L 255.411 272.444 260.928 272.444 C 265.398 272.444,266.444 272.388,266.444 272.146 C 266.444 271.982,265.951 270.444,265.348 268.729 L 264.251 265.611 266.292 265.463 C 268.461 265.306,271.559 264.953,272.389 264.769 L 272.889 264.658 272.889 268.200 C 272.889 270.148,272.950 271.900,273.024 272.093 C 273.145 272.408,274.449 272.444,285.468 272.444 L 297.778 272.444 297.778 265.778 L 297.778 259.111 292.227 259.111 L 286.677 259.111 286.616 263.033 L 286.556 266.954 283.889 263.042 C 282.072 260.376,281.091 259.126,280.810 259.120 C 280.544 259.114,280.441 258.997,280.519 258.792 C 281.238 256.918,281.768 252.795,281.905 248.000 C 282.051 242.894,282.092 242.607,282.722 242.330 L 283.222 242.111 283.279 226.833 L 283.336 211.556 284.502 211.549 C 295.856 211.480,303.241 210.478,305.742 208.667 C 308.545 206.637,309.698 202.319,309.940 192.944 C 310.049 188.742,310.103 188.222,310.431 188.222 C 311.321 188.222,311.333 188.070,311.333 177.111 C 311.333 169.180,311.267 166.467,311.067 166.267 C 310.890 166.090,309.930 166.000,308.219 166.000 C 304.207 166.000,303.326 164.791,305.785 162.660 C 308.700 160.135,309.672 156.480,309.931 147.056 C 310.050 142.761,310.106 142.222,310.432 142.222 C 311.321 142.222,311.333 142.068,311.333 131.111 C 311.333 123.180,311.267 120.467,311.067 120.267 C 310.891 120.091,309.925 119.998,308.233 119.993 C 306.306 119.988,305.557 119.903,305.226 119.653 C 303.315 118.208,294.912 117.181,284.500 117.118 L 283.333 117.111 283.333 116.111 L 283.333 115.111 284.500 115.104 C 295.855 115.036,303.241 114.034,305.742 112.223 C 308.545 110.192,309.698 105.874,309.940 96.500 C 310.049 92.298,310.103 91.778,310.431 91.778 C 311.321 91.778,311.333 91.626,311.333 80.667 C 311.333 72.736,311.267 70.022,311.067 69.822 C 310.891 69.647,309.925 69.553,308.233 69.548 C 306.306 69.543,305.557 69.458,305.226 69.209 C 303.315 67.764,294.912 66.736,284.501 66.674 L 283.335 66.667 283.279 40.527 L 283.222 14.388 282.722 14.056 L 282.222 13.724 282.222 42.195 M135.528 48.083 C 135.353 48.466,135.385 50.416,135.644 55.249 C 135.841 58.901,136.054 63.139,136.118 64.667 C 136.182 66.194,136.290 68.169,136.359 69.056 L 136.482 70.667 141.963 70.663 C 144.978 70.661,147.582 70.573,147.749 70.467 C 148.166 70.203,148.110 70.074,144.914 63.913 C 143.401 60.994,141.033 56.263,139.652 53.400 C 136.614 47.099,136.212 46.581,135.528 48.083 M137.477 90.466 C 137.098 90.909,137.090 91.500,137.317 102.577 C 137.448 108.982,137.556 115.773,137.556 117.667 L 137.556 121.111 157.093 121.111 C 167.838 121.111,176.788 121.050,176.982 120.976 C 177.551 120.758,177.428 120.464,175.420 117.210 C 171.888 111.489,165.741 101.266,162.734 96.111 C 161.094 93.300,159.502 90.775,159.197 90.500 L 158.642 90.000 148.259 90.000 C 137.991 90.000,137.872 90.005,137.477 90.466 M193.191 90.333 C 193.121 90.517,192.916 90.667,192.735 90.667 C 192.282 90.667,191.576 89.502,202.080 106.080 L 211.605 121.111 232.817 121.111 C 247.014 121.111,254.171 121.035,254.459 120.881 C 255.112 120.531,255.135 90.958,254.483 90.368 C 253.889 89.831,193.397 89.797,193.191 90.333 M225.667 116.111 L 225.667 117.000 218.060 117.058 L 210.454 117.117 209.894 116.230 C 209.585 115.741,209.333 115.289,209.333 115.224 C 209.333 115.159,213.008 115.132,217.500 115.164 L 225.667 115.222 225.667 116.111 M138.056 140.876 L 137.556 141.293 137.556 154.203 L 137.556 167.113 171.719 167.056 C 204.482 167.002,205.886 166.984,205.960 166.598 C 206.048 166.143,190.935 141.739,190.073 140.944 L 189.531 140.444 164.043 140.452 C 139.444 140.459,138.538 140.474,138.056 140.876 M224.969 140.778 C 224.899 140.961,224.702 141.111,224.532 141.111 C 224.096 141.111,223.959 140.842,226.920 145.808 C 229.801 150.643,235.486 160.498,237.765 164.611 L 239.150 167.111 247.199 167.111 C 253.373 167.111,255.339 167.045,255.636 166.828 C 255.999 166.562,256.008 166.150,255.776 160.328 C 255.640 156.909,255.459 151.178,255.375 147.593 C 255.232 141.495,255.194 141.055,254.791 140.760 C 254.124 140.272,225.157 140.289,224.969 140.778 M250.283 186.872 L 249.788 187.285 252.522 192.920 C 254.026 196.020,255.640 199.381,256.108 200.389 C 256.983 202.274,257.174 202.439,257.883 201.920 C 258.471 201.491,257.455 187.637,256.781 186.893 C 256.194 186.243,251.056 186.227,250.283 186.872 M138.326 235.683 C 138.216 237.159,138.243 237.888,138.417 238.061 C 138.602 238.246,138.667 237.694,138.667 235.933 C 138.667 232.986,138.536 232.890,138.326 235.683 M138.444 240.642 C 138.444 240.905,138.300 241.050,138.056 241.031 C 137.771 241.008,137.648 241.194,137.597 241.722 C 137.525 242.474,138.005 242.750,138.370 242.167 C 138.566 241.854,138.719 240.222,138.552 240.222 C 138.493 240.222,138.444 240.411,138.444 240.642 M138.000 265.778 L 138.000 272.444 143.556 272.444 L 149.111 272.444 149.111 265.778 L 149.111 259.111 143.556 259.111 L 138.000 259.111 138.000 265.778 M153.778 265.426 C 153.778 268.900,153.838 271.900,153.913 272.093 C 154.033 272.407,155.235 272.444,165.195 272.444 L 176.343 272.444 177.124 271.801 C 180.483 269.032,179.916 262.939,176.070 260.497 C 173.959 259.156,173.541 259.111,163.182 259.111 L 153.778 259.111 153.778 265.426 M188.015 264.497 C 186.993 267.463,185.935 270.489,185.664 271.222 L 185.172 272.556 190.676 272.493 C 196.955 272.421,196.358 272.646,197.222 270.023 L 197.836 268.156 198.513 270.300 L 199.189 272.444 204.706 272.444 C 209.007 272.444,210.222 272.382,210.222 272.163 C 210.222 272.009,209.232 269.034,208.022 265.552 L 205.822 259.222 197.848 259.164 L 189.873 259.106 188.015 264.497 M302.667 265.778 L 302.667 272.444 308.222 272.444 L 313.778 272.444 313.778 270.440 C 313.778 268.480,313.789 268.438,314.278 268.539 C 314.553 268.595,315.137 268.698,315.576 268.768 C 316.762 268.958,317.387 269.751,317.509 271.221 L 317.611 272.444 323.134 272.444 L 328.658 272.444 328.799 271.882 C 329.410 269.451,327.418 264.674,324.794 262.276 C 321.781 259.522,319.921 259.120,310.167 259.115 L 302.667 259.111 302.667 265.778 M329.556 259.778 C 329.556 260.420,329.593 260.444,330.556 260.444 L 331.556 260.444 331.556 263.778 L 331.556 267.111 332.333 267.111 L 333.111 267.111 333.111 263.778 L 333.111 260.444 334.222 260.444 C 335.309 260.444,335.333 260.430,335.333 259.778 L 335.333 259.111 332.444 259.111 L 329.556 259.111 329.556 259.778 M335.699 260.611 C 335.624 261.436,335.497 263.236,335.417 264.611 L 335.270 267.111 336.051 267.111 L 336.832 267.111 337.001 264.167 L 337.170 261.222 337.461 262.556 C 338.356 266.663,338.498 266.994,339.398 267.069 C 339.851 267.107,340.222 267.080,340.222 267.009 C 340.222 266.939,340.434 266.108,340.693 265.163 C 340.952 264.218,341.291 262.944,341.446 262.333 L 341.729 261.222 341.755 263.000 C 341.809 266.593,341.946 267.111,342.843 267.111 L 343.625 267.111 343.481 263.944 C 343.260 259.066,343.274 259.111,341.984 259.111 L 340.916 259.111 340.367 260.944 C 340.065 261.953,339.747 263.120,339.660 263.539 C 339.505 264.289,339.045 262.992,338.305 259.722 C 338.176 259.151,338.091 259.111,337.001 259.111 L 335.835 259.111 335.699 260.611 M88.294 264.132 L 89.333 264.486 89.333 265.732 C 89.333 266.417,89.251 266.883,89.150 266.767 C 88.910 266.491,87.451 264.414,87.244 264.056 C 87.044 263.706,87.044 263.706,88.294 264.132 M166.362 264.667 C 166.664 264.667,167.144 264.919,167.430 265.228 C 168.843 266.752,167.885 268.889,165.789 268.889 L 165.111 268.889 165.111 266.643 C 165.111 264.686,165.156 264.414,165.463 264.532 C 165.656 264.606,166.061 264.667,166.362 264.667 " stroke="none" fill="#060e06" fill-rule="evenodd"></path><path id="path2" d="M279.024 3.222 C 279.290 6.853,280.351 12.359,280.458 10.667 C 280.519 9.709,280.441 9.084,279.872 6.000 C 279.145 2.059,278.874 1.170,279.024 3.222 M284.108 7.634 C 283.040 8.842,282.185 10.036,282.302 10.154 C 282.380 10.232,282.478 10.255,282.520 10.204 C 283.744 8.701,285.092 6.519,284.108 7.634 M276.222 9.556 C 276.650 9.916,277.200 10.210,277.444 10.209 L 277.889 10.209 277.444 9.957 C 277.200 9.818,276.950 9.636,276.889 9.552 C 276.741 9.349,275.854 8.887,275.626 8.895 C 275.526 8.898,275.794 9.195,276.222 9.556 M286.278 11.191 C 284.196 11.502,283.333 11.717,283.333 11.927 C 283.333 12.295,283.454 12.292,285.778 11.872 C 286.817 11.684,288.517 11.383,289.556 11.203 C 290.594 11.023,291.544 10.834,291.667 10.784 C 292.248 10.546,288.907 10.798,286.278 11.191 M279.167 11.479 C 279.973 12.401,279.927 12.424,276.000 13.018 C 274.594 13.231,273.549 13.441,273.677 13.484 C 273.805 13.527,275.177 13.378,276.726 13.153 C 280.147 12.655,280.339 12.728,279.360 14.153 L 278.626 15.222 279.307 14.444 C 279.681 14.017,279.991 13.592,279.994 13.500 C 279.999 13.354,280.665 13.244,280.668 13.389 C 280.668 13.419,280.868 14.794,281.111 16.444 C 281.533 19.305,281.554 20.640,281.555 45.174 C 281.556 72.838,281.500 71.473,282.611 70.989 C 282.981 70.828,282.981 70.816,282.611 70.727 C 282.243 70.639,282.222 69.060,282.222 41.444 L 282.222 12.253 282.722 12.157 L 283.222 12.061 282.722 12.030 C 282.430 12.013,282.222 11.856,282.222 11.652 C 282.222 11.367,281.972 11.316,280.833 11.367 C 280.069 11.401,279.294 11.340,279.111 11.232 C 278.876 11.093,278.892 11.165,279.167 11.479 M141.481 11.652 C 141.413 11.828,141.534 12.203,141.748 12.486 C 141.963 12.769,150.382 26.029,160.458 41.954 C 178.673 70.742,179.295 71.668,179.953 71.010 C 180.038 70.925,179.944 70.764,179.743 70.652 C 179.543 70.540,170.956 57.147,160.660 40.891 C 150.365 24.634,141.865 11.333,141.772 11.333 C 141.679 11.333,141.548 11.477,141.481 11.652 M281.493 14.795 C 281.545 16.231,281.287 15.932,281.027 14.257 C 280.913 13.524,280.945 13.315,281.161 13.386 C 281.341 13.445,281.462 13.961,281.493 14.795 M283.334 14.381 C 283.334 14.622,285.530 16.099,285.674 15.956 C 285.799 15.831,284.648 14.903,283.833 14.471 C 283.558 14.326,283.334 14.285,283.334 14.381 M134.587 49.060 C 134.529 49.155,134.569 50.680,134.676 52.449 C 134.783 54.219,135.033 59.017,135.232 63.111 C 135.438 67.357,135.693 70.675,135.824 70.833 C 136.099 71.164,136.889 71.206,136.889 70.889 C 136.889 70.767,136.751 70.667,136.582 70.667 C 136.249 70.667,136.274 70.993,135.665 58.444 C 135.215 49.164,135.107 48.220,134.587 49.060 M309.513 70.833 C 309.237 71.503,309.606 89.527,309.898 89.639 C 310.179 89.747,310.222 88.491,310.222 80.215 C 310.222 72.050,310.176 70.667,309.902 70.667 C 309.726 70.667,309.551 70.742,309.513 70.833 M192.000 91.334 C 192.000 91.855,210.605 121.324,211.039 121.490 C 211.201 121.552,211.508 121.527,211.722 121.434 C 212.041 121.295,212.051 121.249,211.778 121.180 C 211.594 121.133,207.144 114.299,201.889 105.993 C 192.548 91.230,192.000 90.418,192.000 91.334 M136.391 91.481 C 136.334 91.583,136.366 94.917,136.461 98.889 C 136.557 102.861,136.650 109.350,136.668 113.308 C 136.686 117.267,136.791 120.742,136.901 121.031 C 137.104 121.565,137.852 121.752,138.111 121.333 C 138.187 121.211,138.043 121.111,137.791 121.111 C 137.340 121.111,137.333 121.018,137.325 115.056 C 137.306 100.601,136.908 90.551,136.391 91.481 M281.556 106.451 C 281.556 122.421,281.519 121.909,282.611 121.434 C 282.981 121.273,282.981 121.260,282.611 121.172 C 282.246 121.084,282.222 120.192,282.222 106.317 C 282.222 93.344,282.182 91.556,281.889 91.556 C 281.596 91.556,281.556 93.359,281.556 106.451 M309.513 121.278 C 309.237 121.948,309.606 139.972,309.898 140.084 C 310.179 140.192,310.222 138.935,310.222 130.660 C 310.222 122.494,310.176 121.111,309.902 121.111 C 309.726 121.111,309.551 121.186,309.513 121.278 M223.725 141.460 C 223.500 141.685,223.728 142.129,226.223 146.333 C 229.456 151.782,233.280 158.396,236.052 163.333 C 238.074 166.933,238.435 167.453,238.958 167.515 C 239.287 167.553,239.556 167.478,239.556 167.348 C 239.556 167.218,239.431 167.111,239.278 167.111 C 239.125 167.111,238.709 166.586,238.354 165.944 C 230.501 151.766,224.112 141.073,223.725 141.460 M136.889 154.674 C 136.889 168.245,136.861 167.906,137.944 167.434 C 138.315 167.273,138.315 167.260,137.944 167.172 C 137.580 167.084,137.556 166.298,137.556 154.539 C 137.556 143.541,137.515 142.000,137.222 142.000 C 136.930 142.000,136.889 143.556,136.889 154.674 M281.556 154.674 C 281.556 168.245,281.527 167.906,282.611 167.434 C 282.981 167.273,282.981 167.260,282.611 167.172 C 282.246 167.084,282.222 166.298,282.222 154.539 C 282.222 143.541,282.181 142.000,281.889 142.000 C 281.596 142.000,281.556 143.556,281.556 154.674 M309.513 167.278 C 309.237 167.948,309.606 185.972,309.898 186.084 C 310.179 186.192,310.222 184.935,310.222 176.660 C 310.222 168.494,310.176 167.111,309.902 167.111 C 309.726 167.111,309.551 167.186,309.513 167.278 M249.212 187.968 C 249.291 188.217,250.539 190.852,251.984 193.822 C 253.430 196.792,254.968 199.997,255.403 200.944 C 256.154 202.582,257.185 203.509,256.761 202.167 C 256.216 200.441,249.821 187.660,249.468 187.592 C 249.155 187.531,249.099 187.613,249.212 187.968 M136.849 212.611 C 136.827 226.147,136.822 237.422,136.838 237.667 C 136.900 238.639,136.670 239.081,136.055 239.174 L 135.444 239.267 136.056 239.300 C 136.502 239.324,136.667 239.450,136.667 239.767 C 136.667 240.005,136.802 240.280,136.967 240.378 C 137.133 240.476,137.325 240.706,137.394 240.889 C 137.464 241.072,137.528 229.247,137.538 214.611 C 137.554 191.097,137.517 188.000,137.222 188.000 C 136.928 188.000,136.884 190.900,136.849 212.611 M281.556 214.087 C 281.556 237.071,281.595 240.190,281.889 240.303 C 282.184 240.416,282.222 237.426,282.222 214.215 C 282.222 191.061,282.183 188.000,281.889 188.000 C 281.594 188.000,281.556 191.047,281.556 214.087 M139.120 225.713 C 138.971 226.666,138.814 228.594,138.769 230.000 C 138.669 233.178,138.961 231.714,139.339 227.144 C 139.617 223.781,139.520 223.148,139.120 225.713 M140.533 235.550 C 139.717 236.524,138.964 237.268,138.858 237.203 C 138.753 237.138,138.667 238.193,138.667 239.547 L 138.667 242.009 139.669 244.004 C 141.100 246.853,141.262 246.674,139.913 243.735 C 138.898 241.524,138.845 241.310,139.137 240.603 C 139.385 240.005,139.472 239.965,140.258 240.091 C 140.727 240.166,142.136 240.279,143.389 240.342 C 144.642 240.405,146.067 240.509,146.556 240.573 C 147.110 240.646,147.361 240.612,147.222 240.483 C 147.100 240.369,145.600 240.107,143.889 239.901 C 139.089 239.323,139.069 239.319,139.348 238.983 C 139.512 238.785,139.520 238.563,139.371 238.297 C 139.138 237.882,139.076 237.981,141.233 235.347 C 142.133 234.246,142.398 233.778,142.119 233.778 C 142.063 233.778,141.349 234.575,140.533 235.550 M134.278 239.042 C 134.492 239.098,134.842 239.098,135.056 239.042 C 135.269 238.986,135.094 238.940,134.667 238.940 C 134.239 238.940,134.064 238.986,134.278 239.042 M134.468 243.444 C 134.073 243.994,133.794 244.444,133.848 244.444 C 133.902 244.444,134.315 243.994,134.766 243.444 C 135.217 242.894,135.496 242.444,135.386 242.444 C 135.276 242.444,134.863 242.894,134.468 243.444 M137.009 243.167 C 136.812 244.326,135.777 253.217,135.785 253.685 C 135.807 255.102,136.249 252.870,136.756 248.778 C 137.074 246.211,137.393 243.736,137.464 243.278 C 137.545 242.764,137.506 242.444,137.363 242.444 C 137.236 242.444,137.076 242.769,137.009 243.167 " stroke="none" fill="#abdec4" fill-rule="evenodd"></path><path id="path3" d="M109.876 11.827 C 110.185 12.268,110.222 15.426,110.222 41.245 L 110.222 70.168 109.722 70.530 L 109.222 70.892 109.778 70.835 L 110.333 70.778 110.393 41.556 C 110.452 12.228,110.433 11.333,109.728 11.333 C 109.619 11.333,109.686 11.556,109.876 11.827 M254.543 11.827 C 254.852 12.268,254.889 15.426,254.889 41.245 L 254.889 70.168 254.389 70.530 L 253.889 70.892 254.444 70.835 L 255.000 70.778 255.059 41.556 C 255.119 12.228,255.099 11.333,254.394 11.333 C 254.286 11.333,254.353 11.556,254.543 11.827 M135.478 47.279 C 135.421 47.372,135.312 47.847,135.237 48.335 L 135.100 49.222 135.384 48.444 C 136.114 46.439,136.528 46.921,139.652 53.400 C 141.033 56.263,143.401 60.994,144.914 63.913 C 148.234 70.312,148.169 70.153,147.634 70.579 C 147.236 70.895,147.238 70.904,147.667 70.840 C 148.555 70.707,148.238 69.811,145.273 64.081 C 143.638 60.920,141.170 55.983,139.789 53.111 C 138.409 50.239,137.125 47.714,136.938 47.500 C 136.595 47.108,135.670 46.968,135.478 47.279 M135.394 52.222 C 135.394 52.772,135.437 52.997,135.490 52.722 C 135.543 52.447,135.543 51.997,135.490 51.722 C 135.437 51.447,135.394 51.672,135.394 52.222 M135.619 56.333 C 135.621 56.944,135.664 57.168,135.715 56.830 C 135.766 56.492,135.765 55.992,135.712 55.719 C 135.659 55.446,135.617 55.722,135.619 56.333 M135.844 60.667 C 135.844 61.339,135.886 61.614,135.937 61.278 C 135.988 60.942,135.988 60.392,135.937 60.056 C 135.886 59.719,135.844 59.994,135.844 60.667 M136.067 65.333 C 136.067 66.006,136.108 66.281,136.159 65.944 C 136.210 65.608,136.210 65.058,136.159 64.722 C 136.108 64.386,136.067 64.661,136.067 65.333 M136.274 69.778 C 136.274 70.206,136.320 70.381,136.375 70.167 C 136.431 69.953,136.431 69.603,136.375 69.389 C 136.320 69.175,136.274 69.350,136.274 69.778 M83.876 71.161 C 84.175 71.587,84.222 72.851,84.222 80.476 C 84.222 85.327,84.283 89.455,84.357 89.648 C 84.478 89.963,85.798 90.000,96.989 90.000 C 108.814 90.000,109.506 90.022,109.854 90.406 C 110.189 90.776,110.222 92.160,110.222 105.713 L 110.222 120.612 109.722 120.974 L 109.222 121.336 109.778 121.279 L 110.333 121.222 110.390 105.908 C 110.443 91.922,110.416 90.559,110.080 90.188 C 109.733 89.805,108.995 89.778,97.134 89.724 L 84.556 89.667 84.502 80.667 C 84.450 71.863,84.357 70.667,83.728 70.667 C 83.619 70.667,83.686 70.889,83.876 71.161 M137.095 90.376 C 136.970 90.706,136.906 91.281,136.954 91.654 L 137.040 92.333 137.076 91.614 C 137.159 89.923,136.624 90.000,148.259 90.000 L 158.642 90.000 159.197 90.500 C 159.502 90.775,161.094 93.300,162.734 96.111 C 165.741 101.266,171.888 111.489,175.420 117.210 C 177.511 120.597,177.508 120.589,176.944 121.040 C 176.580 121.332,176.583 121.347,177.000 121.284 C 177.992 121.135,177.614 120.290,173.716 113.954 C 169.637 107.323,164.081 98.036,161.337 93.263 C 159.104 89.379,160.623 89.778,148.056 89.778 L 137.322 89.778 137.095 90.376 M192.544 90.019 C 192.461 90.152,192.512 90.377,192.655 90.519 C 192.854 90.716,192.969 90.685,193.136 90.389 C 193.485 89.770,253.960 89.787,254.521 90.406 C 254.856 90.776,254.889 92.160,254.889 105.713 L 254.889 120.612 254.389 120.974 L 253.889 121.336 254.444 121.279 L 255.000 121.222 255.057 105.908 C 255.109 91.895,255.083 90.559,254.745 90.186 C 254.301 89.695,192.846 89.530,192.544 90.019 M282.299 90.121 C 282.097 90.646,282.395 90.781,282.849 90.369 C 283.441 89.834,308.890 89.800,309.333 90.333 C 309.485 90.517,309.713 90.667,309.839 90.667 C 309.966 90.667,309.888 90.467,309.667 90.222 C 309.114 89.611,282.532 89.512,282.299 90.121 M137.197 100.000 C 137.197 101.528,137.232 102.153,137.276 101.389 C 137.319 100.625,137.319 99.375,137.276 98.611 C 137.232 97.847,137.197 98.472,137.197 100.000 M137.428 114.222 C 137.428 116.850,137.460 117.925,137.499 116.611 C 137.538 115.297,137.538 113.147,137.499 111.833 C 137.460 110.519,137.428 111.594,137.428 114.222 M83.876 121.605 C 84.175 122.032,84.222 123.296,84.222 130.920 C 84.222 135.772,84.283 139.900,84.357 140.093 C 84.478 140.408,85.798 140.444,96.989 140.444 C 108.814 140.444,109.506 140.466,109.854 140.851 C 110.188 141.219,110.222 142.450,110.222 153.935 L 110.222 166.612 109.722 166.974 L 109.222 167.336 109.778 167.279 L 110.333 167.222 110.391 154.131 C 110.443 142.209,110.415 141.003,110.080 140.632 C 109.733 140.249,108.998 140.223,97.134 140.168 L 84.556 140.111 84.502 131.111 C 84.450 122.308,84.357 121.111,83.728 121.111 C 83.619 121.111,83.686 121.333,83.876 121.605 M137.632 140.565 C 137.430 141.091,137.728 141.225,138.183 140.813 C 138.558 140.474,140.638 140.444,164.061 140.444 L 189.531 140.444 190.073 140.944 C 190.777 141.594,206.000 166.021,206.000 166.501 C 206.000 166.702,205.825 166.969,205.611 167.093 C 205.260 167.298,205.268 167.320,205.698 167.327 C 206.235 167.334,206.502 166.859,206.287 166.278 C 206.011 165.532,190.601 140.997,190.167 140.611 C 189.532 140.047,137.848 140.002,137.632 140.565 M224.321 140.464 C 224.239 140.597,224.290 140.822,224.433 140.964 C 224.632 141.161,224.747 141.129,224.914 140.833 C 225.217 140.296,254.059 140.225,254.791 140.760 C 255.194 141.055,255.232 141.495,255.375 147.593 C 255.459 151.178,255.640 156.907,255.776 160.324 L 256.023 166.536 255.512 166.930 L 255.000 167.323 255.487 167.328 C 256.263 167.336,256.273 167.203,256.003 160.269 C 255.862 156.638,255.678 150.784,255.595 147.260 C 255.454 141.270,255.416 140.832,255.013 140.538 C 254.456 140.130,224.572 140.059,224.321 140.464 M282.299 140.565 C 282.097 141.091,282.395 141.225,282.849 140.813 C 283.441 140.278,308.890 140.244,309.333 140.778 C 309.485 140.961,309.713 141.111,309.839 141.111 C 309.966 141.111,309.888 140.911,309.667 140.667 C 309.114 140.056,282.532 139.957,282.299 140.565 M83.876 167.605 C 84.175 168.032,84.222 169.296,84.222 176.920 C 84.222 181.772,84.283 185.900,84.357 186.093 C 84.478 186.408,85.798 186.444,96.989 186.444 C 108.814 186.444,109.506 186.466,109.854 186.851 C 110.192 187.224,110.222 189.400,110.222 213.610 C 110.222 228.105,110.283 240.122,110.357 240.315 C 110.478 240.630,111.843 240.667,123.494 240.667 L 136.496 240.667 136.132 241.222 C 135.745 241.812,135.985 241.999,136.433 241.458 C 136.580 241.282,136.858 241.199,137.053 241.273 C 137.296 241.367,137.353 241.323,137.236 241.134 C 137.143 240.982,136.931 240.910,136.767 240.974 C 136.574 241.047,136.511 240.974,136.590 240.768 C 136.696 240.492,134.914 240.440,123.634 240.391 L 110.556 240.333 110.499 213.683 C 110.447 189.321,110.411 186.998,110.077 186.629 C 109.734 186.250,108.964 186.222,97.134 186.168 L 84.556 186.111 84.502 177.111 C 84.450 168.308,84.357 167.111,83.728 167.111 C 83.619 167.111,83.686 167.333,83.876 167.605 M137.632 186.565 C 137.430 187.091,137.728 187.225,138.183 186.813 C 138.560 186.472,141.615 186.444,178.394 186.444 L 218.197 186.444 218.772 186.944 C 219.089 187.219,226.820 199.394,235.954 214.000 L 252.560 240.556 266.810 240.613 C 279.126 240.662,281.097 240.715,281.335 241.002 C 281.486 241.184,281.713 241.333,281.839 241.333 C 281.966 241.333,281.888 241.133,281.667 240.889 C 281.272 240.453,280.982 240.444,267.111 240.444 C 253.909 240.444,252.935 240.418,252.619 240.056 C 252.433 239.842,244.909 227.867,235.900 213.444 C 226.891 199.022,219.273 186.997,218.970 186.722 L 218.420 186.222 178.092 186.222 C 141.949 186.222,137.750 186.258,137.632 186.565 M249.877 186.464 C 249.622 186.877,250.122 187.166,250.437 186.787 C 250.920 186.205,256.239 186.293,256.781 186.893 C 257.452 187.634,258.471 201.490,257.886 201.918 C 257.411 202.266,257.583 202.567,258.135 202.355 C 258.565 202.190,258.537 201.345,257.801 192.163 C 257.287 185.735,257.654 186.222,253.312 186.222 C 251.186 186.222,249.974 186.307,249.877 186.464 M282.299 186.565 C 282.097 187.091,282.395 187.225,282.849 186.813 C 283.441 186.278,308.890 186.244,309.333 186.778 C 309.485 186.961,309.713 187.111,309.839 187.111 C 309.966 187.111,309.888 186.911,309.667 186.667 C 309.114 186.056,282.532 185.957,282.299 186.565 M138.486 231.694 C 138.463 232.076,138.381 232.726,138.304 233.139 C 138.196 233.713,138.226 233.831,138.428 233.643 C 138.591 233.491,138.661 232.940,138.609 232.198 C 138.564 231.539,138.508 231.313,138.486 231.694 M138.000 234.974 C 138.000 235.157,138.100 235.369,138.222 235.444 C 138.344 235.520,138.444 235.432,138.444 235.248 C 138.444 235.065,138.344 234.853,138.222 234.778 C 138.100 234.702,138.000 234.790,138.000 234.974 M137.920 237.222 C 137.994 237.711,138.142 238.206,138.249 238.322 C 138.357 238.438,138.444 238.730,138.444 238.970 C 138.444 239.211,138.511 239.341,138.591 239.260 C 138.733 239.119,138.384 237.700,137.981 236.778 C 137.850 236.479,137.830 236.624,137.920 237.222 M138.202 240.176 C 137.635 240.838,137.446 241.205,137.777 241.000 C 137.954 240.891,138.164 240.954,138.317 241.162 C 138.516 241.435,138.566 241.331,138.566 240.640 C 138.566 240.166,138.561 239.778,138.554 239.778 C 138.548 239.778,138.390 239.957,138.202 240.176 M75.573 277.944 L 75.556 284.000 81.222 284.000 L 86.889 284.000 86.889 280.404 L 86.889 276.809 89.389 280.509 L 91.889 284.210 96.167 284.216 L 100.444 284.222 100.444 278.333 L 100.444 272.444 88.130 272.444 C 78.486 272.444,75.791 272.384,75.703 272.167 C 75.641 272.014,75.583 274.614,75.573 277.944 M153.795 277.944 L 153.778 284.000 159.444 284.000 L 165.111 284.000 165.111 279.556 L 165.111 275.111 165.634 275.111 C 167.560 275.111,169.079 277.945,169.515 282.351 L 169.667 283.889 181.097 283.889 L 192.527 283.889 193.201 281.829 L 193.875 279.768 197.875 279.829 L 201.876 279.889 202.509 281.944 L 203.142 284.000 208.781 284.000 L 214.419 284.000 212.739 279.167 C 211.815 276.508,210.910 273.883,210.727 273.333 L 210.396 272.333 204.864 272.396 C 201.822 272.431,199.333 272.482,199.333 272.509 C 199.333 272.536,199.426 272.883,199.540 273.279 L 199.747 274.000 197.849 274.000 C 195.791 274.000,195.804 274.012,196.335 272.632 C 196.430 272.385,195.477 272.353,190.836 272.444 L 185.222 272.556 183.336 277.956 C 182.106 281.478,181.400 283.217,181.307 282.956 C 181.228 282.736,180.941 281.578,180.670 280.383 C 180.134 278.016,178.754 274.940,177.528 273.377 L 176.778 272.421 165.409 272.437 C 156.427 272.449,154.016 272.393,153.926 272.170 C 153.864 272.016,153.805 274.614,153.795 277.944 M216.684 277.946 L 216.667 284.003 232.708 283.946 L 248.749 283.889 249.423 281.829 L 250.097 279.768 254.097 279.829 L 258.098 279.889 258.731 281.944 L 259.365 284.000 265.003 284.000 L 270.641 284.000 268.961 279.167 C 268.037 276.508,267.132 273.883,266.949 273.333 L 266.618 272.333 261.087 272.396 C 258.045 272.431,255.556 272.482,255.556 272.509 C 255.556 272.536,255.649 272.883,255.762 273.279 L 255.969 274.000 254.072 274.000 C 252.014 274.000,252.027 274.012,252.557 272.632 C 252.652 272.385,251.699 272.353,247.058 272.444 L 241.444 272.556 239.556 277.967 L 237.667 283.377 237.604 280.578 L 237.542 277.778 232.771 277.778 L 228.000 277.778 227.982 274.833 C 227.973 273.214,227.914 272.014,227.853 272.167 C 227.767 272.378,226.451 272.444,222.333 272.444 C 218.215 272.444,216.899 272.378,216.814 272.167 C 216.752 272.014,216.694 274.615,216.684 277.946 M272.906 277.944 L 272.889 284.000 278.556 284.000 L 284.222 284.000 284.222 280.404 L 284.222 276.809 286.722 280.509 L 289.222 284.210 293.500 284.216 L 297.778 284.222 297.778 278.333 L 297.778 272.444 285.463 272.444 C 275.819 272.444,273.124 272.384,273.036 272.167 C 272.974 272.014,272.916 274.614,272.906 277.944 M328.667 272.185 C 328.667 272.376,327.194 272.444,323.106 272.444 L 317.545 272.444 317.333 273.000 C 317.034 273.786,315.847 274.443,314.722 274.444 L 313.778 274.444 313.778 273.444 L 313.778 272.444 308.222 272.444 L 302.667 272.444 302.667 278.222 L 302.667 284.000 310.187 284.000 C 320.907 284.000,323.946 282.998,326.813 278.516 C 328.017 276.634,329.269 272.528,328.787 272.046 C 328.721 271.980,328.667 272.043,328.667 272.185 M111.889 272.444 L 106.333 272.556 104.407 278.000 C 103.348 280.994,102.473 283.571,102.463 283.726 C 102.448 283.948,103.633 283.995,108.041 283.948 L 113.638 283.889 114.312 281.829 L 114.986 279.768 118.986 279.829 L 122.987 279.889 123.620 281.944 L 124.253 284.000 129.892 284.000 L 135.530 284.000 133.850 279.167 C 132.926 276.508,132.021 273.883,131.838 273.333 L 131.507 272.333 125.976 272.396 C 122.933 272.431,120.444 272.482,120.444 272.509 C 120.444 272.536,120.537 272.883,120.651 273.279 L 120.858 274.000 118.984 274.000 C 117.029 274.000,116.968 273.962,117.340 272.984 C 117.622 272.241,118.364 272.315,111.889 272.444 M138.000 278.222 L 138.000 284.000 143.556 284.000 L 149.111 284.000 149.111 278.222 L 149.111 272.444 143.556 272.444 L 138.000 272.444 138.000 278.222 " stroke="none" fill="#1e5819" fill-rule="evenodd"></path><path id="path4" d="M110.487 11.722 C 110.557 12.087,111.521 12.118,125.929 12.222 C 134.381 12.283,141.343 12.383,141.401 12.444 C 141.458 12.506,149.824 25.706,159.992 41.778 C 170.161 57.850,178.641 71.125,178.838 71.278 C 179.554 71.833,254.170 71.667,253.667 71.111 C 253.180 70.574,180.130 70.388,179.951 70.924 C 179.564 72.084,178.865 71.044,160.458 41.954 C 150.382 26.029,141.963 12.769,141.748 12.486 C 141.534 12.203,141.413 11.828,141.481 11.652 C 141.586 11.377,139.471 11.333,126.007 11.333 C 111.274 11.333,110.416 11.355,110.487 11.722 M255.153 11.720 C 255.223 12.086,256.009 12.118,267.336 12.222 C 280.476 12.343,279.755 12.367,279.412 11.823 C 279.037 11.227,255.039 11.126,255.153 11.720 M279.561 13.007 C 279.974 13.504,280.667 13.853,280.667 13.563 C 280.667 13.437,280.517 13.333,280.333 13.333 C 280.150 13.333,280.000 13.244,280.000 13.135 C 280.000 13.026,279.836 12.873,279.635 12.796 C 279.325 12.678,279.314 12.709,279.561 13.007 M272.444 13.556 L 271.667 13.719 272.611 13.749 C 273.131 13.765,273.556 13.678,273.556 13.556 C 273.556 13.433,273.481 13.346,273.389 13.363 C 273.297 13.379,272.872 13.466,272.444 13.556 M281.027 14.257 C 281.287 15.932,281.545 16.231,281.493 14.795 C 281.462 13.961,281.341 13.445,281.161 13.386 C 280.945 13.315,280.913 13.524,281.027 14.257 M278.307 15.389 C 278.217 15.542,277.993 15.917,277.809 16.222 C 277.459 16.803,277.545 16.734,278.431 15.722 C 278.725 15.386,278.855 15.111,278.719 15.111 C 278.582 15.111,278.397 15.236,278.307 15.389 M281.144 43.667 C 281.123 64.766,281.176 70.449,281.399 70.889 L 281.680 71.444 295.395 71.502 L 309.111 71.559 309.111 80.545 L 309.111 89.530 309.598 89.871 C 310.169 90.271,310.512 90.094,309.955 89.687 C 309.610 89.435,309.574 88.582,309.544 80.039 L 309.511 70.667 296.308 70.667 C 286.692 70.667,282.993 70.737,282.693 70.924 C 281.491 71.674,281.557 73.144,281.536 45.063 C 281.525 30.850,281.439 18.722,281.344 18.111 C 281.248 17.500,281.159 29.000,281.144 43.667 M134.298 48.345 C 134.225 48.534,134.332 51.809,134.534 55.622 C 134.737 59.436,134.989 64.433,135.096 66.728 C 135.345 72.093,134.634 71.556,141.472 71.556 C 146.939 71.556,147.412 71.501,146.844 70.933 C 146.503 70.592,136.889 70.549,136.889 70.889 C 136.889 71.206,136.099 71.164,135.824 70.833 C 135.693 70.675,135.438 67.357,135.232 63.111 C 135.033 59.017,134.780 54.217,134.670 52.444 C 134.494 49.622,134.512 49.189,134.818 48.955 C 135.182 48.676,135.075 48.000,134.667 48.000 C 134.537 48.000,134.371 48.155,134.298 48.345 M84.487 71.056 C 84.557 71.420,85.356 71.448,96.984 71.502 L 109.406 71.559 109.002 71.113 C 108.411 70.460,84.361 70.404,84.487 71.056 M136.119 90.653 C 135.788 91.189,136.489 121.204,136.843 121.611 C 137.159 121.976,138.398 122.000,156.958 122.000 C 176.721 122.000,176.735 122.000,176.333 121.556 C 175.876 121.051,138.420 120.833,138.111 121.333 C 137.851 121.754,137.103 121.564,136.899 121.025 C 136.788 120.734,136.687 116.719,136.675 112.104 C 136.662 107.488,136.616 103.652,136.571 103.578 C 136.326 103.178,136.378 91.448,136.624 91.500 C 136.991 91.577,136.957 91.000,136.575 90.683 C 136.364 90.508,136.215 90.498,136.119 90.653 M191.556 91.012 C 191.556 91.537,209.454 120.263,210.621 121.611 C 210.937 121.976,212.261 122.000,232.513 122.000 C 254.055 122.000,254.069 122.000,253.667 121.556 C 253.181 121.019,212.654 120.838,211.804 121.368 C 211.578 121.510,211.247 121.570,211.069 121.502 C 210.450 121.264,191.967 91.794,192.042 91.166 C 192.080 90.851,191.986 90.552,191.833 90.501 C 191.656 90.441,191.556 90.627,191.556 91.012 M281.251 90.944 C 280.964 92.016,281.104 120.750,281.399 121.333 L 281.680 121.889 295.395 121.946 L 309.111 122.003 309.111 130.989 L 309.111 139.975 309.598 140.316 C 310.169 140.716,310.512 140.539,309.955 140.132 C 309.610 139.880,309.574 139.027,309.544 130.483 L 309.511 121.111 296.308 121.111 C 286.692 121.111,282.993 121.181,282.693 121.368 C 282.466 121.510,282.118 121.563,281.918 121.486 C 281.386 121.282,281.357 91.556,281.889 91.556 C 282.289 91.556,282.326 91.082,281.956 90.711 C 281.569 90.325,281.402 90.380,281.251 90.944 M136.955 93.556 C 136.955 94.228,136.997 94.503,137.048 94.167 C 137.099 93.831,137.099 93.281,137.048 92.944 C 136.997 92.608,136.955 92.883,136.955 93.556 M137.186 104.444 C 137.186 105.361,137.225 105.736,137.273 105.278 C 137.321 104.819,137.321 104.069,137.273 103.611 C 137.225 103.153,137.186 103.528,137.186 104.444 M137.397 120.111 C 137.399 120.722,137.442 120.946,137.493 120.608 C 137.544 120.270,137.543 119.770,137.490 119.497 C 137.437 119.224,137.395 119.500,137.397 120.111 M84.487 121.500 C 84.557 121.864,85.356 121.893,96.984 121.946 L 109.406 122.004 109.002 121.557 C 108.411 120.905,84.361 120.848,84.487 121.500 M136.556 141.611 C 136.261 143.239,136.542 167.249,136.861 167.633 C 137.142 167.971,139.824 168.000,171.284 168.000 C 205.388 168.000,205.402 168.000,205.000 167.556 C 204.514 167.018,138.881 166.835,138.026 167.368 C 137.800 167.510,137.451 167.563,137.252 167.486 C 136.720 167.283,136.691 142.000,137.222 142.000 C 137.622 142.000,137.660 141.526,137.289 141.156 C 136.866 140.732,136.696 140.837,136.556 141.611 M223.334 141.500 C 223.334 141.878,224.151 143.470,225.471 145.667 C 228.472 150.661,233.564 159.460,235.886 163.667 C 236.966 165.622,237.999 167.397,238.181 167.611 C 238.487 167.969,239.185 168.000,246.847 168.000 C 255.166 168.000,255.179 167.999,254.778 167.556 C 254.311 167.040,239.556 166.839,239.556 167.348 C 239.556 167.478,239.287 167.553,238.958 167.515 C 238.435 167.453,238.074 166.933,236.052 163.333 C 233.155 158.173,229.304 151.521,226.208 146.327 C 223.808 142.302,223.384 141.383,223.982 141.513 C 224.243 141.569,224.248 141.521,224.010 141.235 C 223.581 140.718,223.333 140.815,223.334 141.500 M281.222 141.611 C 280.927 143.239,281.208 167.249,281.527 167.633 C 281.805 167.967,283.058 168.000,295.472 168.000 L 309.111 168.000 309.111 176.987 L 309.111 185.975 309.598 186.316 C 310.169 186.716,310.512 186.539,309.955 186.132 C 309.610 185.880,309.574 185.027,309.544 176.483 L 309.511 167.111 296.308 167.111 C 286.692 167.111,282.993 167.181,282.693 167.368 C 282.466 167.510,282.118 167.563,281.918 167.486 C 281.387 167.283,281.358 142.000,281.889 142.000 C 282.289 142.000,282.326 141.526,281.956 141.156 C 281.532 140.732,281.363 140.837,281.222 141.611 M84.487 167.500 C 84.557 167.864,85.356 167.893,96.984 167.946 L 109.406 168.004 109.002 167.557 C 108.411 166.905,84.361 166.848,84.487 167.500 M136.585 187.389 C 136.511 187.664,136.446 198.789,136.440 212.111 C 136.430 233.223,136.388 236.262,136.111 235.778 C 135.936 235.472,135.790 235.293,135.786 235.378 C 135.773 235.637,136.284 236.667,136.425 236.666 C 136.497 236.666,136.528 237.241,136.493 237.944 C 136.447 238.904,136.489 239.129,136.663 238.848 C 136.790 238.642,136.875 238.192,136.851 237.848 C 136.591 234.105,136.934 188.000,137.222 188.000 C 137.622 188.000,137.660 187.526,137.289 187.156 C 136.903 186.769,136.736 186.824,136.585 187.389 M248.889 187.520 C 248.889 188.027,252.250 195.265,255.612 202.000 C 256.138 203.053,257.333 203.601,257.333 202.788 C 257.333 202.523,257.195 202.471,256.775 202.576 C 256.256 202.706,256.160 202.593,255.414 200.969 C 254.973 200.008,253.430 196.792,251.984 193.822 C 248.962 187.611,248.939 187.556,249.457 187.556 C 249.765 187.556,249.783 187.496,249.556 187.222 C 249.133 186.713,248.889 186.822,248.889 187.520 M281.251 187.389 C 281.177 187.664,281.116 199.658,281.114 214.043 L 281.111 240.197 281.598 240.538 C 282.176 240.943,282.508 240.759,281.944 240.346 C 281.389 239.940,281.334 188.000,281.889 188.000 C 282.289 188.000,282.326 187.526,281.956 187.156 C 281.569 186.769,281.402 186.824,281.251 187.389 M137.707 238.417 C 137.624 238.829,137.556 239.470,137.556 239.841 L 137.556 240.515 138.060 239.980 C 138.337 239.685,138.497 239.394,138.414 239.333 C 138.331 239.272,138.172 238.872,138.061 238.444 L 137.858 237.667 137.707 238.417 M130.222 238.530 C 130.222 238.740,133.850 239.128,134.039 238.938 C 134.165 238.813,133.658 238.678,132.733 238.590 C 130.998 238.426,130.222 238.408,130.222 238.530 M135.000 239.111 L 134.556 239.302 135.000 239.302 C 135.244 239.302,135.644 239.216,135.889 239.111 L 136.333 238.920 135.889 238.920 C 135.644 238.920,135.244 239.006,135.000 239.111 M136.472 239.982 C 136.682 240.585,137.333 241.115,137.333 240.683 C 137.333 240.578,137.183 240.434,137.000 240.364 C 136.817 240.294,136.667 240.033,136.667 239.785 C 136.667 239.536,136.572 239.333,136.456 239.333 C 136.327 239.333,136.333 239.584,136.472 239.982 " stroke="none" fill="#4fc086" fill-rule="evenodd"></path></g></svg>