<svg width="1248" height="644" viewBox="0 0 1248 644" fill="none" xmlns="http://www.w3.org/2000/svg">
<path d="M685.7 507.5C703.7 510 1042.6 505.4 1046.4 512.5C1050.2 519.6 864.8 516 761.4 529C728.3 533.2 730.9 541 754.8 541.8C778.9 542.6 661.2 560.5 543.6 558C385.3 554.6 566.5 527.5 500.7 525C478.5 524.2 458.3 525.5 450.3 524.7C419.5 521.3 440.1 505.6 492.2 505.6C513 505.6 605.1 506.6 605.1 506.6C605.1 506.6 651.5 502.8 685.7 507.5Z" fill="#B0C8E9"/>
<path d="M946.8 481.2C956.2 484.9 956.1 485.1 965.5 488.8C974.9 492.5 974.9 492.5 984.3 496.1C993.7 499.8 993.6 500 1003 503.6C1012.4 507.3 1012.3 507.5 1021.7 511.2C1031.1 514.9 1031.1 514.9 1040.4 518.6C1049.8 522.3 1049.8 522.2 1059.2 525.9C1068.6 529.6 1068.9 528.7 1078.3 532.4C1087.7 536.1 1087.3 537 1096.7 540.7C1106.1 544.4 1106.5 543.4 1115.8 547.1C1125.2 550.8 1125.1 550.9 1134.5 554.6C1143.9 558.3 1143.8 558.4 1153.2 562.1C1162.6 565.8 1162.4 566.3 1171.7 570C1181.1 573.7 1181.3 573.1 1190.7 576.8C1200.1 580.5 1200.1 580.5 1209.4 584.2C1218.8 587.9 1218.7 588.1 1228.1 591.8C1237.5 595.5 1237.4 595.6 1246.8 599.3" stroke="#95A6CD" stroke-width="1.7311" stroke-miterlimit="10"/>
<path d="M883 480.7C891.8 486.1 892 485.7 900.8 491.1C909.6 496.5 909.7 496.3 918.5 501.6C927.3 507 927.2 507 936 512.4C944.8 517.8 944.7 517.9 953.5 523.3C962.3 528.7 961.9 529.3 970.7 534.6C979.5 540 979.7 539.6 988.5 544.9C997.3 550.3 997 550.7 1005.8 556.1C1014.6 561.5 1015 560.8 1023.8 566.2C1032.6 571.6 1032.4 572 1041.1 577.3C1049.9 582.7 1049.9 582.6 1058.7 588C1067.5 593.4 1067.5 593.4 1076.2 598.8" stroke="#95A6CD" stroke-width="1.7311" stroke-miterlimit="10"/>
<path d="M885.6 565.4C892.1 573.1 892.2 573.1 898.7 580.8C905.2 588.6 904.8 588.9 911.3 596.6C917.8 604.4 917.8 604.4 924.3 612.1C930.8 619.9 931.4 619.3 937.9 627.1C944.4 634.9 944.4 634.8 950.9 642.6" stroke="#95A6CD" stroke-width="1.7311" stroke-miterlimit="10"/>
<path d="M814.9 480.1C821.9 488.4 821.8 488.5 828.8 496.8C835.8 505.1 835.6 505.3 842.6 513.6C849.6 521.9 849 522.4 856 530.8C863 539.1 863.2 539 870.2 547.3" stroke="#95A6CD" stroke-width="1.7311" stroke-miterlimit="10"/>
<path d="M745 477.3C743.6 487.5 743.5 487.4 742.1 497.6C740.7 507.8 740.3 507.7 738.9 517.9C737.5 528.1 737.1 528 735.7 538.2C734.3 548.4 734.9 548.4 733.5 558.6C732.1 568.8 732.3 568.8 730.9 578.9C729.5 589.1 729.6 589.1 728.2 599.2" stroke="#95A6CD" stroke-width="1.7311" stroke-miterlimit="10"/>
<path d="M619.9 518.7C611.5 525 611.4 524.9 603 531.2C594.6 537.5 594.5 537.4 586.1 543.7C577.7 550 577.8 550.2 569.4 556.6C561 562.9 560.6 562.5 552.2 568.8C543.8 575.1 543.9 575.2 535.4 581.6C527 587.9 527 588 518.6 594.3C510.2 600.6 509.8 600.1 501.3 606.4C492.9 612.7 493.4 613.4 484.9 619.7" stroke="#95A6CD" stroke-width="1.7311" stroke-miterlimit="10"/>
<path d="M670.4 480.7C662.3 486.7 662.2 486.6 654.1 492.7C646 498.7 646 498.7 637.9 504.8" stroke="#95A6CD" stroke-width="1.7311" stroke-miterlimit="10"/>
<path d="M424.7 541.5C415.8 545.1 415.9 545.3 406.9 548.9C398 552.5 398 552.6 389.1 556.1C380.2 559.7 380.2 559.7 371.2 563.2C362.3 566.8 362.4 567.1 353.4 570.6C344.5 574.2 344.4 574.1 335.5 577.6C326.6 581.2 326.5 581 317.5 584.5C308.6 588.1 308.7 588.5 299.8 592.1C290.9 595.7 290.7 595.2 281.7 598.8" stroke="#95A6CD" stroke-width="1.7311" stroke-miterlimit="10"/>
<path d="M579.4 480.7C570.6 484.2 570.6 484.2 561.8 487.8C553 491.3 552.9 491 544.1 494.5C535.3 498 535.3 498.1 526.5 501.6C517.7 505.1 517.6 504.8 508.8 508.3C500 511.8 500.1 512.2 491.3 515.7C482.5 519.2 482.2 518.6 473.4 522.1" stroke="#95A6CD" stroke-width="1.7311" stroke-miterlimit="10"/>
<path d="M491.5 481.1C481.7 483.5 481.7 483.5 471.9 485.8C462.1 488.2 462.1 488.3 452.3 490.7C442.5 493.1 442.6 493.5 432.8 495.9C423 498.3 422.8 497.6 413 499.9C403.2 502.3 403.1 502 393.3 504.4C383.5 506.8 383.5 507 373.7 509.3C363.9 511.7 363.9 511.6 354.1 514C344.3 516.4 344.4 516.7 334.6 519C324.8 521.4 324.8 521.2 314.9 523.6C305.1 526 305.2 526.5 295.4 528.8C285.6 531.2 285.5 530.8 275.7 533.1C265.9 535.5 265.9 535.3 256 537.7C246.2 540.1 246.3 540.5 236.5 542.9C226.7 545.3 226.5 544.5 216.7 546.8C206.9 549.2 207.1 549.9 197.2 552.2C187.4 554.6 187.3 554.1 177.5 556.4C167.7 558.8 167.8 559.4 158 561.7C148.2 564.1 148 563.1 138.1 565.5C128.3 567.9 128.4 568.2 118.6 570.5C108.8 572.9 108.8 572.7 98.9 575.1C89.1 577.5 89.2 577.8 79.4 580.2C69.6 582.6 69.6 582.5 59.8 584.8C50 587.2 50.1 587.5 40.3 589.9C30.5 592.3 30.4 591.9 20.6 594.2C10.8 596.6 10.8 596.6 1 599" stroke="#95A6CD" stroke-width="1.7311" stroke-miterlimit="10"/>
<path d="M812.2 163.8H832.7L842 75.8L821.7 73.8L812.2 163.8Z" fill="#F6F7FB"/>
<path d="M818.9 100.2L839.2 102.2L840 94.7L819.7 92.6L818.9 100.2Z" fill="#C8D6EB"/>
<path d="M856.9 163.8H874.2L881 99.1L863.8 97.6L856.9 163.8Z" fill="#79A3DC"/>
<path d="M833.5 162.9L850.5 164.5L863.5 99.7L846.7 97L833.5 162.9Z" fill="#79A3DC"/>
<path d="M874.8 165.9L887.3 163.8L895.2 89.2L883 87.8L874.8 165.9Z" fill="#79A3DC"/>
<path d="M888.5 159.7L899.7 163.8L927.2 104.5L917.1 98.1L888.5 159.7Z" fill="#F6F7FB"/>
<path d="M767.4 157.5L778.6 161.6L806.5 101.4L796 95.8L767.4 157.5Z" fill="#79A3DC"/>
<path d="M975.4 105.7L995.6 108.1L996.8 97L976.5 94.6L975.4 105.7Z" fill="#DCE3EB"/>
<path d="M936.2 143.1L948.3 144.8L949.2 136.9L937.1 135.2L936.2 143.1Z" fill="#DCE3EB"/>
<path d="M911.1 162.2L923 164.2L931.5 133.5L920.1 129.6L911.1 162.2Z" fill="#DCE3EB"/>
<path d="M969.3 163.8H989.8L999 75.8L978.7 73.8L969.3 163.8Z" fill="#79A3DC"/>
<path d="M947.5 163.8H968.1L975.8 90.3L955.5 88.2L947.5 163.8Z" fill="#79A3DC"/>
<path d="M934 163.8H946.3L955.3 78.6L943.2 76.6L934 163.8Z" fill="#79A3DC"/>
<path d="M911.1 162.2L923 164.2L940.6 101.8L928.9 97.6L911.1 162.2Z" fill="#79A3DC"/>
<path d="M753.8 161.6H766.1L774.1 85.5L762 83.5L753.8 161.6Z" fill="#79A3DC"/>
<path d="M789.8 160L801.8 162L819.3 99.5L807.6 95.4L789.8 160Z" fill="#79A3DC"/>
<path d="M684.3 203.6H667V269.9H684.3V203.6Z" fill="#F6F7FB"/>
<path d="M893.59 267.044L910.415 271.071L925.849 206.594L909.025 202.567L893.59 267.044Z" fill="#F6F7FB"/>
<path d="M915.552 268.321L927.678 270.385L938.685 205.717L926.56 203.653L915.552 268.321Z" fill="#F6F7FB"/>
<path d="M952.212 269.998L972.712 269.998L972.712 194.298L952.212 194.298L952.212 269.998Z" fill="#F6F7FB"/>
<path d="M952.212 256.273L972.712 256.273L972.712 246.073L952.212 246.073L952.212 256.273Z" fill="#79A3DC"/>
<path d="M643.375 268.324L655.5 270.388L666.508 205.72L654.382 203.656L643.375 268.324Z" fill="#F6F7FB"/>
<path d="M974.017 269.934L994.517 269.934L994.517 205.134L974.017 205.134L974.017 269.934Z" fill="#79A3DC"/>
<path d="M974.017 226.316L994.517 226.316L994.517 217.616L974.017 217.616L974.017 226.316Z" fill="#B0C8E9"/>
<path d="M697.531 269.972L708.231 269.972L708.231 209.972L697.531 209.972L697.531 269.972Z" fill="#79A3DC"/>
<path d="M717.667 269.972L728.367 269.972L728.367 209.972L717.667 209.972L717.667 269.972Z" fill="#79A3DC"/>
<path d="M685.612 269.973L696.312 269.973L696.312 182.673L685.612 182.673L685.612 269.973Z" fill="#79A3DC"/>
<path d="M938.728 269.917L951.028 269.917L951.028 199.417L938.728 199.417L938.728 269.917Z" fill="#79A3DC"/>
<path d="M876.606 270.001L893.906 270.001L893.906 203.701L876.606 203.701L876.606 270.001Z" fill="#79A3DC"/>
<path d="M876.606 225.074L893.906 225.074L893.906 218.474L876.606 218.474L876.606 225.074Z" fill="#79A3DC"/>
<path d="M853.07 269.044L870.292 270.675L876.544 204.673L859.321 203.042L853.07 269.044Z" fill="#79A3DC"/>
<path d="M857.159 226.332L874.381 227.963L875.041 220.995L857.819 219.364L857.159 226.332Z" fill="#79A3DC"/>
<path d="M744.008 202.921L726.786 204.552L733.037 270.554L750.259 268.923L744.008 202.921Z" fill="#C8D6EB"/>
<path d="M621.508 267.072L638.332 271.099L653.766 206.623L636.942 202.595L621.508 267.072Z" fill="#79A3DC"/>
<path d="M805.242 264.956L819.082 269.911L845.443 196.286L831.603 191.331L805.242 264.956Z" fill="#79A3DC"/>
<path d="M769.578 269.266L779.787 264.66L755.191 210.152L744.982 214.758L769.578 269.266Z" fill="#C8D6EB"/>
<path d="M567.809 381.766L585.109 381.766L585.109 315.566L567.809 315.566L567.809 381.766Z" fill="#DCE3EB"/>
<path d="M544.334 380.818L561.556 382.449L567.798 316.547L550.575 314.915L544.334 380.818Z" fill="#DCE3EB"/>
<path d="M598.38 377.617L609.96 381.764L632.04 320.095L620.46 315.949L598.38 377.617Z" fill="#DCE3EB"/>
<path d="M743.3 311.7H723.9V383.1H743.3V311.7Z" fill="#DCE3EB"/>
<path d="M756 300.7H744.4V383.1H756V300.7Z" fill="#DCE3EB"/>
<path d="M951.573 380.853L967.783 382.556L974.314 320.4L958.104 318.697L951.573 380.853Z" fill="#F6F7FB"/>
<path d="M916.483 382.204L932.709 383.74L938.602 321.522L922.375 319.985L916.483 382.204Z" fill="#F6F7FB"/>
<path d="M920.084 344.858L936.311 346.395L937.253 336.44L921.027 334.903L920.084 344.858Z" fill="#79A3DC"/>
<path d="M855.03 306.247L841.002 311.27L867.7 385.837L881.729 380.814L855.03 306.247Z" fill="#F6F7FB"/>
<path d="M722.8 298.1H703.4V383.1H722.8V298.1Z" fill="#79A3DC"/>
<path d="M985.126 324.453L975.081 323.397L969.166 379.686L979.211 380.742L985.126 324.453Z" fill="#79A3DC"/>
<path d="M914.6 326.5H904.5V383.1H914.6V326.5Z" fill="#79A3DC"/>
<path d="M901 326.5H890.9V383.1H901V326.5Z" fill="#79A3DC"/>
<path d="M999.47 298.628L989.425 297.572L980.825 379.42L990.869 380.475L999.47 298.628Z" fill="#79A3DC"/>
<path d="M814.5 320.6H798.2V383.1H814.5V320.6Z" fill="#79A3DC"/>
<path d="M830.691 319.962L814.464 321.498L820.357 383.717L836.583 382.18L830.691 319.962Z" fill="#79A3DC"/>
<path d="M933.628 382.206L949.854 383.742L955.747 321.524L939.521 319.987L933.628 382.206Z" fill="#79A3DC"/>
<path d="M783.899 319.528L768.047 323.323L782.597 384.104L798.449 380.309L783.899 319.528Z" fill="#79A3DC"/>
<path d="M767.438 320.641L756.003 322.588L766.373 383.51L777.808 381.564L767.438 320.641Z" fill="#79A3DC"/>
<path d="M840.026 305.755L825.337 308.255L837.872 381.894L852.561 379.394L840.026 305.755Z" fill="#79A3DC"/>
<path d="M680.218 381.828L700.718 381.828L700.718 291.828L680.218 291.828L680.218 381.828Z" fill="#79A3DC"/>
<path d="M658.479 381.778L678.979 381.778L678.979 306.178L658.479 306.178L658.479 381.778Z" fill="#79A3DC"/>
<path d="M722.8 355.8H703.4V366.7H722.8V355.8Z" fill="#79A3DC"/>
<path d="M680.218 311.774L700.718 311.774L700.718 303.674L680.218 303.674L680.218 311.774Z" fill="#79A3DC"/>
<path d="M658.479 329.263L678.979 329.263L678.979 320.563L658.479 320.563L658.479 329.263Z" fill="#79A3DC"/>
<path d="M644.95 381.832L657.25 381.832L657.25 294.632L644.95 294.632L644.95 381.832Z" fill="#79A3DC"/>
<path d="M585.941 381.745L598.241 381.745L598.241 303.645L585.941 303.645L585.941 381.745Z" fill="#79A3DC"/>
<path d="M621.845 380.09L633.971 382.154L644.962 317.584L632.836 315.52L621.845 380.09Z" fill="#79A3DC"/>
<path d="M897.219 438.172L885.639 442.318L907.719 503.987L919.299 499.84L897.219 438.172Z" fill="#F6F7FB"/>
<path d="M774.305 505.209L793.705 505.209L793.705 433.809L774.305 433.809L774.305 505.209Z" fill="#F6F7FB"/>
<path d="M761.645 505.214L773.245 505.214L773.245 422.814L761.645 422.814L761.645 505.214Z" fill="#F6F7FB"/>
<path d="M595.198 442.055L578.971 443.591L584.864 505.81L601.091 504.273L595.198 442.055Z" fill="#DCE3EB"/>
<path d="M635.802 500.477L648.889 505.163L673.733 435.774L660.646 431.089L635.802 500.477Z" fill="#F6F7FB"/>
<path d="M649.29 462.948L662.377 467.634L667.063 454.547L653.976 449.861L649.29 462.948Z" fill="#79A3DC"/>
<path d="M994.5 413.9H974V503.9H994.5V413.9Z" fill="#79A3DC"/>
<path d="M949.8 437.7H932.5V503.9H949.8V437.7Z" fill="#79A3DC"/>
<path d="M967.006 437.014L949.784 438.645L956.025 504.547L973.248 502.916L967.006 437.014Z" fill="#79A3DC"/>
<path d="M971.093 480.392L953.871 482.023L954.936 493.272L972.158 491.641L971.093 480.392Z" fill="#79A3DC"/>
<path d="M794.816 505.267L814.216 505.267L814.216 420.267L794.816 420.267L794.816 505.267Z" fill="#79A3DC"/>
<path d="M603.042 505.283L613.142 505.283L613.142 448.683L603.042 448.683L603.042 505.283Z" fill="#79A3DC"/>
<path d="M616.626 505.283L626.726 505.283L626.726 448.683L616.626 448.683L616.626 505.283Z" fill="#79A3DC"/>
<path d="M703.155 505.273L719.455 505.273L719.455 442.773L703.155 442.773L703.155 505.273Z" fill="#79A3DC"/>
<path d="M681.034 504.391L697.26 505.928L703.153 443.709L686.926 442.172L681.034 504.391Z" fill="#79A3DC"/>
<path d="M578.098 442.052L561.872 443.589L567.765 505.808L583.991 504.271L578.098 442.052Z" fill="#C8D6EB"/>
<path d="M719.169 502.506L735.021 506.301L749.571 445.519L733.719 441.725L719.169 502.506Z" fill="#79A3DC"/>
<path d="M739.826 503.662L751.262 505.609L761.632 444.686L750.196 442.74L739.826 503.662Z" fill="#C8D6EB"/>
<path d="M662.317 503.3L676.02 505.632L688.387 432.979L674.684 430.646L662.317 503.3Z" fill="#79A3DC"/>
<path d="M837.4 413.9H816.9V503.9H837.4V413.9Z" fill="#C8D6EB"/>
<path d="M859.1 428.3H838.6V503.9H859.1V428.3Z" fill="#79A3DC"/>
<path d="M872.6 416.7H860.3V503.9H872.6V416.7Z" fill="#79A3DC"/>
<path d="M931.6 425.8H919.3V503.9H931.6V425.8Z" fill="#79A3DC"/>
<path d="M931.6 449.1H919.3V468.1H931.6V449.1Z" fill="#79A3DC"/>
<path d="M884.818 437.692L872.692 439.756L883.683 504.326L895.808 502.262L884.818 437.692Z" fill="#79A3DC"/>
<path d="M711.32 34.8921L1008.52 34.8921L1008.52 13.6921L711.32 13.6921L711.32 34.8921Z" fill="#79A3DC"/>
<path d="M998.101 512.459L1046.5 512.459L1046.5 13.6591L998.101 13.6591L998.101 512.459Z" fill="#79A3DC"/>
<path d="M1003.27 168.818L1003.27 163.518L657.666 163.518L657.666 168.818L1003.27 168.818Z" fill="#79A3DC"/>
<path d="M1003.3 276V270.8L568.8 272.1V277.3L1003.3 276Z" fill="#79A3DC"/>
<path d="M1003.3 384.3V377.8L561 379.5V386L1003.3 384.3Z" fill="#79A3DC"/>
<path d="M1003.24 512.436L1003.24 502.036L584.035 502.036L584.035 512.436L1003.24 512.436Z" fill="#79A3DC"/>
<path d="M711.2 29.2H1003.3V507.3H584" stroke="#C8D6EB" stroke-width="1.1655" stroke-miterlimit="10"/>
<path d="M1041.4 29.2H1008.5V506.6H1041.4V29.2Z" stroke="#C8D6EB" stroke-width="1.1655" stroke-miterlimit="10"/>
<path d="M711.2 24.2H1046.4" stroke="#C8D6EB" stroke-width="1.1655" stroke-miterlimit="10"/>
<path d="M928.6 274.7H859.1V293.1H928.6V274.7Z" fill="#B0C8E9"/>
<path d="M928.6 381.8H859.1V400.2H928.6V381.8Z" fill="#B0C8E9"/>
<path d="M928.6 166.2H859.1V184.6H928.6V166.2Z" fill="#B0C8E9"/>
<path d="M615.4 297.4C626.4 327.1 591.2 327.2 597.9 349.7C604.1 370.4 576.5 376.2 564.2 373.2C542.6 368 523.4 355.7 521.7 337C520.3 320.7 542.2 312.9 538.5 292.8C532.1 258.2 556.4 270.8 564.5 248.9C575.9 217.8 596.8 199.8 610.9 211C624.7 222 607.3 241.9 613.4 249C630.5 269.2 609.2 280.6 615.4 297.4Z" fill="#41B5E7"/>
<path d="M549.8 324.6L550.5 324.3L560.6 346C563.3 333.5 566.4 321.5 569.5 310.4L555.6 284.1L556.2 283.8L569.7 309.4C574.1 293.6 578.7 279.6 582.6 268.2L577.4 239.2L578.1 239.1L583.1 266.8C589.3 248.9 594 237.9 594.1 237.6L595.1 238C594.9 238.5 582.4 268.1 570.7 309.8L601 298.7L601.2 299.4L570.4 310.7C567.3 321.9 564.2 334 561.5 346.7L579.9 333.9L580.3 334.5L561.3 347.8C556.1 371.9 552.1 397.8 551 423.4H549.9C551 397.6 555 371.5 560.3 347.3L549.8 324.6Z" fill="#C8D6EB"/>
<path d="M632.3 356.9C632.1 381.4 606.6 371.9 605.3 390.1C604.1 406.8 582.5 403.4 574.4 397.9C560.2 388.2 549.6 374 553.5 360C556.9 347.8 575 348.2 577.8 332.6C582.7 305.8 596.8 321.6 608.6 307.9C625.4 288.5 645.5 281.2 652.7 293.1C659.7 304.8 641.6 314.5 644.1 321.3C651 340.5 632.4 343 632.3 356.9Z" fill="#3D7CC9"/>
<path d="M550.2 430.2C558.1 411.8 568.2 393.9 578.6 377.8L577.2 358.6L577.9 358.5L579.3 376.7C584.7 368.5 590.1 360.7 595.3 353.5L592.4 330.7L593.1 330.6L595.9 352.6C603.4 342.4 610.5 333.6 616.4 326.4L620.5 304.1L621.2 304.2L617.3 325.3C626.6 314.2 632.9 307.6 633.1 307.4L633.9 308.1C633.6 308.4 616.5 326.4 596.6 353.3L621.4 353.5V354.2L596.1 354C590.8 361.2 585.3 369.1 579.9 377.4L596.5 373.2L596.7 373.9L579.4 378.3C569 394.3 559 412 551.2 430.3L550.2 430.2Z" fill="#C8D6EB"/>
<path d="M506.7 341.2C496.7 363.6 517.5 359.4 511.2 376.5C505.4 392.2 540.2 404.1 549.9 402.4C566.9 399.4 573.2 379.5 575.4 365.2C577.3 352.7 568 356.4 571.9 341C578.6 314.6 559.2 310 554.1 292.6C546.9 268 527.7 259.9 516.2 267.8C504.9 275.6 514.9 297.9 509.8 303.1C495.6 318 512.4 328.6 506.7 341.2Z" fill="#3FAE49"/>
<path d="M532 360.4L532.5 359.8L545.9 370.5C544.4 360.7 542.7 351.3 540.8 342.5L517.6 332.2L517.9 331.5L540.6 341.6C533.7 308.9 525.5 285.5 525.4 285L526.4 284.6C526.5 284.9 529.5 293.4 533.4 307.4L538.6 286.6L539.3 286.8L533.8 308.8C536.3 317.8 539.1 328.8 541.7 341.1L553.3 322.2L553.9 322.6L541.9 342.1C543.7 350.8 545.4 360.1 546.9 369.8L555.7 353.8L556.3 354.1L547 371C549.8 390 551.6 410.4 551.2 430.5H550.1C550.6 410.6 548.8 390.4 546 371.5L532 360.4Z" fill="#C8D6EB"/>
<path d="M487 374.4C487 392.6 506 385.7 506.9 399.2C507.7 411.6 523.7 409.2 529.8 405.2C540.4 398.1 548.4 387.6 545.6 377.1C543.1 368 529.7 368.2 527.7 356.6C524.2 336.6 513.6 348.3 504.9 338C492.5 323.5 477.6 317.9 472.2 326.8C466.9 335.5 480.3 342.8 478.5 347.9C473.2 362.1 487 364.1 487 374.4Z" fill="#3D7CC9"/>
<path d="M485.9 338.4L486.7 337.7C486.8 337.8 491.4 342.7 498.1 350.7L495.4 335.4L496.1 335.3L499 351.8C503.4 357.1 508.5 363.7 514 371.2L516.1 355.1L516.8 355.2L514.6 372C518.4 377.3 522.3 383 526.2 389.1L527.3 375.9L528 376L526.8 390.1C534.5 402.2 541.9 415.5 547.6 429.3L546.6 429.7C540.9 416.1 533.6 402.8 526 390.9L513.2 387.6L513.4 386.9L525.4 390C521.5 383.9 517.5 378.1 513.7 372.8H495V372.1H513.2C498.7 352 486.1 338.6 485.9 338.4Z" fill="#C8D6EB"/>
<path d="M578 516H522.9C520.6 516 518.5 514.4 518 512.1L499.5 429.7C499.3 429 499.9 428.3 500.6 428.3H600.3C601 428.3 601.6 429 601.4 429.7L582.9 512.1C582.4 514.3 580.4 516 578 516Z" fill="#F26A3F"/>
<path opacity="0.8" d="M924.3 560.5C924.3 564.5 915.9 567.7 900.2 567.4C881.7 567 877.5 571.3 870.3 571.2C861 571.2 863.9 570.6 852.7 570.5C841.3 570.4 836.5 570.5 819.7 570.5C770.8 570.5 769 566.5 769 558.7C769 551.7 788.8 547.2 804.1 547.2C814.8 547.3 826.6 550.5 837.6 549.7C874.7 546.9 876.1 545.8 888.1 549.6C897.8 552.7 905.6 554.1 913.1 554.5C920.6 555 924.3 557.9 924.3 560.5Z" fill="#B0C8E9"/>
<path d="M711.2 254.4C814.8 221.6 1073.9 272.2 928.2 308.1" stroke="#3D7CC9" stroke-width="1.2091" stroke-miterlimit="10"/>
<path d="M727.4 215.1C791 194.8 1021.8 215.9 916.2 243.5" stroke="#3D7CC9" stroke-width="1.2091" stroke-miterlimit="10"/>
<path d="M763 167.7C764.7 189.6 968.6 193.3 888.5 170.1" stroke="#3D7CC9" stroke-width="1.2091" stroke-miterlimit="10"/>
<path d="M808.5 480.3C967.7 383.2 883.9 133.5 835.7 130.6C806.1 128.8 796 358.7 792 478.2" stroke="#3D7CC9" stroke-width="1.2091" stroke-miterlimit="10"/>
<path d="M852.6 479.2C1074.6 406.4 907 135 835.8 130.7C756.9 125.9 685.5 303.4 737.7 459.3" stroke="#3D7CC9" stroke-width="1.2091" stroke-miterlimit="10"/>
<path d="M835.7 130.7C876.7 137.9 874.5 488.9 792 478.3" stroke="#3D7CC9" stroke-width="4.8363" stroke-miterlimit="10"/>
<path d="M797.9 479.3C844.7 485.2 992.2 481.7 982 330.3C964.8 304.2 798.4 259.1 696.1 301.6C659.9 427.5 741.9 472.2 797.9 479.3Z" fill="#1A3F81"/>
<path d="M696.2 301.5C774 250.8 1111.4 320.2 926.8 359.3" stroke="#3D7CC9" stroke-width="4.8363" stroke-miterlimit="10"/>
<path d="M746 336.6C734.7 426.6 727 470.1 792.1 478.2C857.2 486.4 968 476 981.8 366.2C993.1 276.2 900.9 138.8 835.8 130.6C770.7 122.4 757.3 246.6 746 336.6Z" stroke="#3D7CC9" stroke-width="4.8363" stroke-miterlimit="10"/>
<path d="M875.8 430.5C860.4 484.2 799.4 484.8 763 471.9C749.2 467 751.1 462.2 736.1 451.7C708.3 432.3 688 383.8 735.8 387.9C835.8 396.5 778.3 283 851.4 297.1C981.1 322.2 888 387.8 875.8 430.5Z" fill="#052054"/>
<path d="M656.7 573.8C659.6 573.7 661.9 571.2 661.8 568.3L661.6 563C661.6 562.5 661.2 562.2 660.7 562.2L630.5 562.9C630.5 562.9 569.4 577 615.5 575.3L656.7 573.8Z" fill="#002F87"/>
<path d="M697.8 449L660.2 461.5L646.9 542.8C645.5 551 639.3 558.6 631.5 561.4C631.5 561.4 620.6 565.3 617.6 566.3C614.6 567.3 617.8 569.8 621.3 569.7C621.3 569.7 623.8 569.6 627.7 569.5C649.7 568.7 655.2 566.6 659.2 564.8C661.7 563.7 661.1 561.4 661.1 561.4C661 558.2 661.4 554.9 662.4 551.9L697.8 449Z" fill="#F6F7FB"/>
<path d="M850.3 395.3L798.1 383.1L793.5 386.8L694.1 375.8C682.2 374.5 671.4 382.7 669.6 394.5L652.5 503.6C659.6 514.7 684.2 508.1 684.2 508.1C684.2 508.1 685.7 487.6 697.8 463.7C707.9 443.9 706.6 423.2 706.6 423.2L834.9 446.5L850.3 395.3Z" fill="#00205C"/>
<path d="M594.9 597.5C600.4 597.9 602.1 596.8 602.1 593.9L602 591.2L570.4 584.5L546.2 586.5C542.8 586.8 525.2 590.6 551.4 594L594.9 597.5Z" fill="#002F87"/>
<path d="M556 586.2L575.3 579.1C580.7 577.3 585.3 573.6 588.2 568.7L618.2 517.7L660.6 507.7L607.7 572.2C603.2 577.7 600.8 584.7 601.2 591.8C601.2 591.8 573.2 591.4 564.6 590.6C556.1 589.8 552.8 589.6 556 586.2Z" fill="#F6F7FB"/>
<path d="M841 400.9L691.8 413.3C684.2 413.9 677.4 418.1 673.3 424.5L617.8 512.9C617.8 512.9 616.2 528.7 643.7 535.5C645.5 536 651.4 523.5 668.9 504.8C693.7 478.4 696.1 456.7 696.1 456.7L827.1 466.9C847.1 462.2 858.4 441 851.3 421.7L841 400.9Z" fill="#002E6D"/>
<path d="M746.9 356.5L796.4 347.9L818.6 299.1C830.3 272 839.6 277.5 844.5 280L845.9 280.7C850.6 283.1 848.7 283.4 838 308.2C830.2 326.4 817.9 357 810.8 364.1C804.3 368.3 752.7 370.2 752.7 370.2L746.9 356.5Z" fill="#F6F7FB"/>
<path d="M838.9 277.7C838.5 277.6 838.1 277.8 837.9 278.2L821.7 314.5C817.4 325.5 820.1 330.3 818.4 336.4C818.4 336.4 811.6 379.8 789.6 385.5C787.7 408.7 802.9 396.6 816.3 402.7C836 411.6 858.2 424.1 858.2 424.1C858.2 424.1 860.1 415.6 871.8 384.8C874.8 377 886.7 358.7 889.2 355.2L919.5 306.6C921 304.2 920 301.1 917.4 300L838.9 277.7Z" fill="#324F8F"/>
<path d="M919.5 306.4C921 304 920 300.9 917.4 299.8L916 299.2C910.3 297.7 901.2 311 887.8 331.5C882.5 339.7 885.5 352.5 893.6 349.6L919.5 306.4Z" fill="#F6F7FB"/>
<path d="M812.6 379.9L881.7 381.1L896.5 329.6C904.1 301.1 910.2 297.7 915.4 299.4L916.9 299.9C921.9 301.6 924 309.7 917 335.9C911.9 355 899.8 396.9 893.8 405C888 410.1 810.9 391.7 810.9 391.7L812.6 379.9Z" fill="#F6F7FB"/>
<path d="M903.6 296L886.6 313.7C881.1 319.5 872.4 320.9 865.3 317.3L842.5 305.8C837.6 303.3 835.9 297.1 838.9 292.5L846.7 279.9L878.1 282.2L903.6 296Z" fill="#F6F7FB"/>
<path opacity="0.2" d="M833.1 247.5C835.4 247.6 833.5 255.7 831.4 256.3C829.3 256.9 826.6 253.9 825.4 249.7C824.2 245.5 825 241.5 827.1 240.9C829.3 240.3 827.5 247.3 833.1 247.5Z" fill="#B0C8E9"/>
<path d="M831.997 256.464C834.444 255.783 835.431 251.65 834.201 247.235C832.971 242.819 829.99 239.792 827.543 240.474C825.096 241.155 824.109 245.287 825.339 249.703C826.569 254.119 829.549 257.146 831.997 256.464Z" stroke="#3D7CC9" stroke-width="0.7553" stroke-miterlimit="10"/>
<path d="M859 302.7C859 302.7 895.6 292.5 888.8 288C877.7 280.6 875.4 245.7 875.4 245.7L851.1 249.2L859 302.7Z" fill="#F6F7FB"/>
<path d="M854.5 272.2L855.5 279C855.5 279 865.7 273.4 864.2 263C862.9 254.2 853 261.3 853 261.3L854.5 272.2Z" fill="#B0C8E9"/>
<path d="M893.625 203.455C897.227 195.024 891.995 184.707 881.939 180.41C871.883 176.114 860.811 179.465 857.209 187.896C853.607 196.327 858.839 206.644 868.895 210.941C878.951 215.237 890.023 211.886 893.625 203.455Z" fill="#00205C"/>
<path d="M850.2 274.3L852.5 273.6C866.2 269.4 873.9 255 869.7 241.3L864.2 223.4C861.2 213.7 850.9 208.2 841.2 211.2C831.5 214.2 826 224.5 829 234.2L839.5 268.6C840.8 273.2 845.7 275.7 850.2 274.3Z" fill="#F6F7FB"/>
<path d="M847.9 198.8C832.9 203.4 824.4 219.3 829 234.3C833.6 249.3 849.5 257.8 864.5 253.2C877.3 249.3 887.1 229.9 883.4 217.7C878.8 202.7 862.9 194.2 847.9 198.8Z" fill="#F6F7FB"/>
<path d="M830.5 239.2C831.6 245.2 830 249.5 828.6 251.9C828.1 252.8 828.6 253.9 829.6 254.1C831.1 254.5 833.3 254.8 835.4 254.4C839.2 253.7 830.5 239.2 830.5 239.2Z" fill="#F6F7FB"/>
<path d="M843.955 244.945C844.647 244.601 844.87 243.641 844.453 242.8C844.035 241.959 843.135 241.556 842.443 241.9C841.75 242.244 841.527 243.204 841.945 244.045C842.362 244.886 843.262 245.289 843.955 244.945Z" fill="#214080"/>
<path d="M848.7 257.1C847.9 257.7 843.1 261 837.4 259.6C838.2 260.1 839.1 260.6 840.1 260.8C841.1 261 842.1 261 843.1 260.9C845 260.6 847.4 258.6 848.7 257.1Z" fill="#002F87"/>
<path d="M831.4 212.5C833.5 213.3 843.8 212.9 845.6 213.7C854.1 217.1 845.9 221.2 857.7 228.3C861.8 230.8 857.8 239.7 861.5 241.4C865.2 243.1 868.1 235.4 869.8 235.5C874.5 235.7 873.2 239.8 874.4 245.2C874.6 245.9 876.2 254.7 876.4 255.4C879.7 247.6 897.9 242.7 893.1 224.4C890 212.7 886.1 205 880.7 201.3C854.4 183.5 832.9 203 831.4 212.5Z" fill="#00205C"/>
<path d="M875.5 242.1C876 243 878.3 245.8 878.2 246.2C878.1 246.6 876.2 248 875.8 246.5C875.4 245 873.9 242.1 873.6 241.3C873.3 240.5 875.5 242.1 875.5 242.1Z" fill="#3D7CC9"/>
<path d="M875.9 243.1C877.6 240.4 877.1 237.1 874.8 235.6C872.5 234.1 869.2 235.1 867.5 237.7C865.3 241 868.9 246.3 870.3 247.3C872.6 248.8 874.1 245.7 875.9 243.1Z" fill="#F6F7FB"/>
<path d="M871.34 248.002C871.837 247.985 872.225 247.568 872.208 247.071C872.19 246.575 871.774 246.186 871.277 246.203C870.78 246.221 870.392 246.638 870.409 247.134C870.426 247.631 870.843 248.02 871.34 248.002Z" fill="#214080"/>
<path d="M892.3 189.071C895.078 182.57 891.071 174.626 883.351 171.328C875.632 168.03 867.122 170.626 864.344 177.127C861.567 183.627 865.573 191.571 873.293 194.87C881.013 198.168 889.523 195.572 892.3 189.071Z" fill="#00205C"/>
<path d="M876.7 182.8C876.7 182.8 863.6 176.8 858.6 182.6C858.6 182.6 865.1 176.8 883.2 188.7C894.2 197.1 876.7 182.8 876.7 182.8Z" fill="#00205C"/>
<path d="M843.294 254.915C846.582 253.779 848.036 249.346 846.539 245.014C845.043 240.681 841.164 238.089 837.875 239.225C834.587 240.36 833.134 244.794 834.63 249.126C836.126 253.459 840.005 256.051 843.294 254.915Z" stroke="#3D7CC9" stroke-width="0.7553" stroke-miterlimit="10"/>
<path d="M845 242.2L867.9 237.2L866.2 239.3L846 244.9L845 242.2Z" fill="#3D7CC9"/>
<path d="M830.9 243.4C831.4 243.4 833.4 243.3 834.3 243.8" stroke="#3D7CC9" stroke-width="0.7553" stroke-miterlimit="10" stroke-linecap="round"/>
<path d="M816.3 402.6C827.1 415.8 820.2 433.8 833.8 442.6C853.1 455 853.2 442.9 854.6 436.5C855.4 432.8 858.1 424.5 858.5 423.1C858.9 421.7 816.3 402.6 816.3 402.6Z" fill="#324F8F"/>
<path d="M714.1 342C730.2 345.6 768.2 354.6 778.3 357C779.9 357.4 781.3 358.3 782.3 359.7L804.3 390.3C805.3 391.7 804.1 393.6 802.4 393.3L740 381.2C738.3 380.9 736.7 379.9 735.7 378.4L712 345.2C710.8 343.7 712.2 341.5 714.1 342Z" fill="#41B5E7"/>
<path d="M817.4 382L794.5 367.2C793 366.2 791 366.2 789.5 367.3L772.3 379C770.9 380 771 382.1 772.5 383L786 379.3L777.2 382.7C776 383.2 775.9 384.8 777 385.5C778.4 386.3 780 386.5 781.6 386.2L787.6 385L784 386.4C782.8 386.9 782.7 388.5 783.8 389.2C784.9 389.8 786.2 390.1 787.5 390L790.4 389.8C789.1 390.1 788.8 392 790 392.6L791 393.2C791.6 393.4 810.3 392.2 810.8 391.7L817.8 388.3L817.4 382Z" fill="#F6F7FB"/>
<path d="M709.5 431.4C718.7 440.9 740 462.7 749.1 463.6C809.8 469.8 827.2 457.8 840.7 450.9C861.6 440.2 863 435.2 884 448.3C884 448.3 852.6 482.6 795.8 476C732.6 468.6 709.5 431.4 709.5 431.4Z" fill="#1A3F81"/>
<path d="M691 329.7C679.7 419.7 727 470.1 792.1 478.2C857.2 486.4 915.5 449.3 926.8 359.3C938.1 269.3 900.9 138.8 835.8 130.6C770.7 122.4 702.3 239.7 691 329.7Z" stroke="#3D7CC9" stroke-width="4.8363" stroke-miterlimit="10"/>
<path d="M719.9 378.6L694.2 375.8C682.3 374.5 671.5 382.7 669.7 394.5L652.6 503.6C659.7 514.7 684.3 508.1 684.3 508.1C684.3 508.1 685.8 487.6 697.9 463.7C708 443.9 706.7 423.2 706.7 423.2L741.2 429.5L719.9 378.6Z" fill="#00205C"/>
<path d="M735.7 410.1L691.9 413.3C684.3 413.9 677.5 418.1 673.4 424.5L617.9 512.9C617.9 512.9 616.3 528.7 643.8 535.5C645.6 536 651.5 523.5 669 504.8C693.8 478.4 696.2 456.7 696.2 456.7L769.7 462.4L735.7 410.1Z" fill="#002E6D"/>
<path d="M829.2 127.5V2" stroke="#3D7CC9" stroke-width="3.2895" stroke-miterlimit="10" stroke-linecap="round"/>
<path d="M829.2 131.1C831.188 131.1 832.8 129.488 832.8 127.5C832.8 125.512 831.188 123.9 829.2 123.9C827.212 123.9 825.6 125.512 825.6 127.5C825.6 129.488 827.212 131.1 829.2 131.1Z" fill="#3D7CC9"/>
</svg>
