<svg xmlns="http://www.w3.org/2000/svg" width="924" height="561.04" xmlns:xlink="http://www.w3.org/1999/xlink"><defs><linearGradient id="a" x1="443.09" x2="443.09" y1="141.41" y2="92.33" gradientUnits="userSpaceOnUse"><stop offset="0" stop-color="#808080" stop-opacity=".25"/><stop offset=".54" stop-color="#808080" stop-opacity=".12"/><stop offset="1" stop-color="#808080" stop-opacity=".1"/></linearGradient><linearGradient id="b" x1="512.33" x2="512.33" y1="183.73" y2="134.64" xlink:href="#a"/><linearGradient id="c" x1="589.27" x2="589.27" y1="129.87" y2="80.79" xlink:href="#a"/><linearGradient id="d" x1="511.26" x2="511.26" y1="49.3" y2=".21" xlink:href="#a"/><linearGradient id="e" x1="434.54" x2="434.54" y1="49.09" xlink:href="#a"/><linearGradient id="f" x1="365.29" x2="365.29" y1="91.4" y2="42.32" xlink:href="#a"/><linearGradient id="g" x1="351.41" x2="351.41" y1="729.19" y2="208.18" xlink:href="#a"/><linearGradient id="h" x1="826.56" x2="826.56" y1="730.52" y2="220.56" xlink:href="#a"/></defs><title>brainstorming</title><path fill="#d81b60" d="M762.5 373.52A161.5 161.5 0 0 1 924 535v2.5H601V535a161.5 161.5 0 0 1 161.5-161.48zM161.5 373.52A161.5 161.5 0 0 1 323 535v2.5H0V535a161.5 161.5 0 0 1 161.5-161.5z"/><path fill="url(#a)" d="M417.74 92.33h50.7v49.1h-50.7z"/><path fill="#f5f5f5" d="M418.6 93.17h48.97v47.4H418.6z"/><path fill="url(#b)" d="M486.98 134.64h50.7v49.1h-50.7z"/><path fill="#f5f5f5" d="M487.85 135.5h48.96v47.4h-48.95z"/><path fill="url(#c)" d="M563.92 80.8h50.7v49.08h-50.7z"/><path fill="#f5f5f5" d="M564.8 81.63h48.95v47.4H564.8z"/><path fill="url(#d)" d="M485.9.2h50.7v49.1h-50.7z"/><path fill="#7cfcff" d="M486.8 1.06h48.95v47.4H486.8z"/><path fill="url(#e)" d="M409.2 0h50.7v49.1h-50.7z"/><path fill="#ffffa5" d="M410.06.85h48.96v47.4h-48.96z"/><path fill="url(#f)" d="M339.94 42.32h50.7v49.1h-50.7z"/><path fill="#ff69b4" d="M340.82 43.16h48.96v47.4h-48.96z"/><path fill="url(#g)" d="M459.23 702.73l-14.23-7.9c-14.9-8.08-18.44-19.56-18.54-28.42a36.58 36.58 0 0 1 .33-4.47l19.78-78.4s22.1-45.8-8.68-59.2C414.2 514 357.26 498 332.33 491.25c5.64-5.82 9.28-10.34 9.28-10.34l-.66-1.54.67-.82s-2.9-6.66-6.93-16.6l13.25-11.82s-.5-.1-1.34-.3l.55-.5s-.54-.1-1.43-.3c9.26-8.08 30.2-27.85 19.58-32.84-10.23-4.82-29.65 10.57-38.3 18.14-.7.27-1.56.6-2.56.94-1.32-3.67-2.6-7.4-3.85-11.1l17.08-26.93c.05-.5.08-1 .08-1.47 5.27-7.4 20.64-31 9.4-39.58-12.38-9.46-24.75 20.66-26.6 25.42-1.13-.14-1.83-.16-1.83-.16-1.24 2.48-4.42 4.3-7.18 5.5 0-.25 0-.5 0-.73s0-.6.05-.9a88 88 0 0 0 .32-9.07c0-1.8 0-3.58-.15-5.37-.34-4.83-.7-11-.74-16.38 0-4.85.43-8.62 1.4-9.35l-.74-.84a2.86 2.86 0 0 1 .75-1.54s-.8-.9-2.1-2.34c2.3-6.58 5.85-16.2 9.7-24.52l.82-.17c.3-.6.58-1.2.87-1.78a37.1 37.1 0 0 0 14.75-64.17 5.5 5.5 0 0 0 1.18-.8c2-1.88 2.15-5 2.13-7.73q0-10.25-.1-20.5c0-2.66 0-5.4-1.17-7.8a7.62 7.62 0 0 0-1.92-2.53 5.76 5.76 0 0 0-5.15-2.2c-2.4.38-4.05 2.5-5.68 4.32a32.9 32.9 0 0 1-34.4 8.88c-3-1-5.87-2.52-9-2.87s-6.76.83-8 3.73c-1.42 3.23.58 7.12-.54 10.47-2.15 6.5-13.1 5.32-16.33 11.36-2.7 5.08 1.9 10.72 5 15.55 5.8 9 6.85 20.12 9.87 30.38 1.24 4.23 4.57 13.46 9.26 17.78a13.9 13.9 0 0 0 1.37 1.3 90.35 90.35 0 0 1-3.17 9.9 11.38 11.38 0 0 0-7.63.83c-7.1 3.95-42.63 22.9-45 72.62-.16 3.4-.23 7.05-.2 10.87-.25 51.57 16 139.12 16 139.12s2.57-2.58 6.76-6.1c6.43 9.28 27 22.72 91.9 24.26l65.5 2.4s7.1 4.74-2.37 15.8c-6.2 7.24-7 24-6.8 34.67a88.65 88.65 0 0 1-2.23 21.53c-1.7 7.4-3.83 16.46-5.3 22a25.33 25.33 0 0 1-2.25-1.58l-9.47 62.36h.12l-.1.76s69.46 19.73 90 5.53c5.5-3.8 7.36-7.06 7.15-9.76.56-7.94-16.64-11.57-16.64-11.57z" transform="translate(-138 -169.48)"/><path fill="#fdb797" d="M150.27 127.2s-3.83 33.7-16.1 40.6S171 182.35 171 182.35s13.8-43.67 23-47.5-43.73-7.66-43.73-7.66zM183.2 215.3s13-35.24 26.06-25.28-10.73 40.6-10.73 40.6z"/><path fill="#4d8af0" d="M112 356.28s-5.36 29.88 91.94 32.18l63.6 2.3s6.9 4.6-2.3 15.32c-6 7-6.8 23.3-6.6 33.66a86 86 0 0 1-2.17 20.88c-2.37 10.3-5.62 24-6.56 25.9-1.52 3.07 36 3.07 36 3.07l19.93-78.93s21.45-44.44-8.43-57.46-114.16-35.23-114.16-35.23z"/><path d="M274.4 484.23s10.68-9.6 14.14-5.94c0 0-11.1 25.86 15.73 40.4l13.8 7.67s29.1 6.13 9.18 19.92-87.34-5.37-87.34-5.37l9.2-60.53s13.03 10.73 25.3 3.83z" opacity=".1"/><path fill="#333" d="M274.4 485s10.68-9.6 14.14-5.94c0 0-11.1 25.87 15.73 40.42l13.8 7.66s29.1 6.13 9.18 19.92-87.34-5.36-87.34-5.36l9.2-60.53s13.03 10.72 25.3 3.83z"/><path fill="#3ad29f" d="M170.2 221.43s9.18-2.3 11.48-6.9c0 0 19.92.77 18.4 15.32l-19.93 31.4z"/><path d="M170.2 221.43s9.18-2.3 11.48-6.9c0 0 19.92.77 18.4 15.32l-19.93 31.4z" opacity=".05"/><path d="M154.86 160.9s-11.5-7.66-18.4-3.83S95.1 179.3 92.8 227.52s15.32 143.28 15.32 143.28 26.05-26.05 46.74-25.28 49-34.48 49-34.48-31-70.7-29.17-92.8a77.2 77.2 0 0 0 .17-11.7c-.7-9.92-1.45-25.7.64-27.28.05.03-16.8-19.12-20.64-18.36z" opacity=".1"/><path fill="#3ad29f" d="M154.86 158.6s-11.5-7.66-18.4-3.83S95.1 177 92.8 225.27s15.33 143.25 15.33 143.25 26.05-26.05 46.74-25.28 49-34.48 49-34.48-31-70.7-29.17-92.8a77.2 77.2 0 0 0 .18-11.7c-.7-9.92-1.45-25.7.64-27.28.03 0-16.82-19.14-20.66-18.38z"/><path fill="#fdb797" d="M185.5 269.7s28.36-27.58 41.38-21.45-23 35.24-23 35.24z"/><path d="M118.1 219.13s9.18 76.62 14.55 81.22 22.22 26.05 55.93 0L210 281.2s-20.7-3.84-17.62-15.33c0 0-27.58 11.5-32.18 2.3s6.9-51.33 6.9-51.33-6.13-37.54-23.75-30.65-25.26 32.93-25.26 32.93z" opacity=".1"/><path fill="#3ad29f" d="M117.32 218.37s9.2 76.62 14.56 81.22 22.22 26.04 55.93 0l21.46-19.16s-20.7-3.83-17.62-15.32c0 0-27.58 11.5-32.18 2.3s6.9-51.33 6.9-51.33-6.13-37.58-23.75-30.68-25.28 32.95-25.28 32.95z"/><path d="M150.27 128.72s.9 1.15-.38 7.28c6.6 7.52 14.86 15.7 25.66 15.7a36.1 36.1 0 0 0 8.17-.93c3.46-7.2 7.1-13.08 10.22-14.38 9.18-3.88-43.68-7.68-43.68-7.68z" opacity=".1"/><circle cx="175.55" cy="114.17" r="36.01" fill="#fdb797"/><path d="M159.55 130.73c.6-2.76 1.08-5.95-.68-8.16-1-1.3-2.67-2-3.84-3.16-4.08-4.1-.5-11.1 3.7-15.1a60.92 60.92 0 0 1 35-16.37c2.22-.25 4.63-.45 6.27-2 2-1.82 2.08-4.82 2.07-7.5l-.1-19.9c0-2.56 0-5.23-1.13-7.56s-3.54-4.23-6.08-3.82c-2.33.38-3.93 2.45-5.5 4.2a31.94 31.94 0 0 1-33.4 8.63c-2.9-1-5.7-2.45-8.75-2.78s-6.55.8-7.8 3.62c-1.37 3.14.57 6.9-.5 10.16-2.1 6.3-12.74 5.16-15.87 11-2.63 4.92 1.84 10.4 4.87 15.1 5.64 8.7 6.65 19.52 9.58 29.48 1.55 5.3 6.46 18.63 13.24 19.48 8.05 1.06 7.68-9.4 8.93-15.3z" opacity=".1"/><path fill="#333" d="M158.8 129.96c.58-2.76 1.07-5.95-.7-8.16-1-1.3-2.66-2-3.83-3.16-4.08-4.12-.5-11.12 3.73-15.12a60.92 60.92 0 0 1 35-16.37c2.22-.25 4.63-.45 6.27-2 2-1.82 2.08-4.82 2.07-7.5l-.1-19.9c0-2.56 0-5.23-1.13-7.56s-3.53-4.24-6.07-3.83c-2.33.38-3.93 2.45-5.5 4.2a31.94 31.94 0 0 1-33.4 8.63c-2.9-1-5.7-2.45-8.75-2.78s-6.56.8-7.8 3.62c-1.38 3.14.56 6.9-.52 10.16-2.1 6.3-12.73 5.16-15.86 11-2.63 4.92 1.84 10.4 4.87 15.1 5.64 8.7 6.65 19.52 9.58 29.48 1.55 5.3 6.46 18.63 13.24 19.48 8 1.07 7.63-9.4 8.9-15.3z"/><path fill="#7cfcff" d="M189 159.9l47.9-10.27 9.95 46.36-47.9 10.27z"/><path fill="url(#h)" d="M980.38 351c-1-4.26-3-8.23-4.44-12.37a60.06 60.06 0 0 1-3-18.6c0-10.25 1.8-20.72 3.45-30.9 1.36-8.47 2.53-17.27 2.4-25.86 0-8.95-1.4-17.7-5.4-25.67-4.43-8.8-12.72-16.33-22.54-17-9.34-.63-18 4.86-27.2 6.33s-18.42-1.06-27.63-.4a40.3 40.3 0 0 0-23.68 10c-5.05 4.52-9.06 10.73-9.14 17.5 0 .26 0 .5 0 .74s0 .32 0 .5c-.1 10.42 7.8 14.14 16.8 15.73a36.66 36.66 0 0 0 31.4 41.8q.66 1.2 1.28 2.43c.1 1.28.17 2.56.18 3.85a53 53 0 0 1-4.44 20.26 26.27 26.27 0 0 1-5.93 2.8L879.32 369a38.1 38.1 0 0 0-6.13 7.42q-1.16.65-2.33 1.27l1.35.34-.1.2-1.24.67.75.2a31.2 31.2 0 0 0-3.9 15.6 29.93 29.93 0 0 0 3.67 14.6 76.1 76.1 0 0 1 4.1 9.57l-7.76 12.43-26.26 38.9-20.17 3.8a56.52 56.52 0 0 0-13.6 0l4.17-7.85a2 2 0 1 0-3.6-1.76l-5.54 10.46c-6.3 1.43-12.87 4.35-17.45 10.14-5 6.3 0 8.42 7.4 8.8l-.76 1.44a2 2 0 0 0 .25 2.14c-.94.26-2 .55-3 .88h-16.8v7.95c-4.8 3.4-8.93 7.8-11 13.46-13.4 11.36-14.53 33.14-14.53 33.14L704 678s-.93 1.4-2.33 3.65c-11.75 7.45-35.15 36.75-29 48.86l25.78-13.07.67.28 1.88-1.56 52-26.35-11.53-23.3-1.6.6c-.47-2.33-.28-4.5 1.46-5.58 2.83-1.77 20.87-36.2 35.52-64.8 5.12 15.3 15.8 50.86 10.8 68.15l-1.92 1.43c-9.07 8.5-25.1 46-15.4 56.3l26.05-24.42 20.08-18.33.4-.85 19.1-18-17.6-19.12-2.73 2c-1.6-4.7-4.9-15.33-3.47-19.1s5.14-41.64-.63-67.58l4.14-.28c14.37 18.76 31.74 35.45 36.8 36.72a3.84 3.84 0 0 0 1.52.05c9.83 1.57 27.8-37.93 27.8-37.93h50.07c44.1-6.3 36.8-41.75 27.93-63.3.27.13.53.26.78.4 0 0-.1-.48-.28-1.37l.28.14a218.15 218.15 0 0 1-4.1-41.13 154.15 154.15 0 0 1 2.6-28.65c3.48 6.1 8.86 11.26 15.7 12.1a499.6 499.6 0 0 0 6.58-67c0-1.58.08-3.17.08-4.76a45.7 45.7 0 0 0-1.06-11.2zM851.23 490.14l2.6-3c12-1.65 24.4-3.58 32.62-5.48A33.4 33.4 0 0 1 875.8 491c-6.25-.36-15-.78-24.57-.86zm30.9-35.06l-2.8 7.92-5 1zm-85 38.77a127.42 127.42 0 0 0 14-1.28l-.26.23a68.1 68.1 0 0 0-11.06 2.9s-1.54.22-4 .8z" transform="translate(-138 -169.48)"/><path fill="#4d8af0" d="M656.13 327.6a1.92 1.92 0 0 1-.88-2.58L671 295.35a1.92 1.92 0 0 1 2.57-.88 1.92 1.92 0 0 1 .88 2.57L658.7 326.7a1.92 1.92 0 0 1-2.57.9z"/><path fill="#be7c5e" d="M662.85 325.45s-42.77 6.17-38.07 35.53l13.5 54.62s20 53.44 12.34 74c0 0-7.63 32.9-15.27 31.7s16.44 5.88 16.44 5.88l27-24.67 8.2-18.2s2.35-5.3-8.22-14.1c0 0-5.87-15.85-4.1-20.54s7-62.14-7.36-81.87z"/><path d="M662.85 325.45s-42.77 6.17-38.07 35.53l13.5 54.62s20 53.44 12.34 74c0 0-7.63 32.9-15.27 31.7s16.44 5.88 16.44 5.88l27-24.67 8.2-18.2s2.35-5.3-8.22-14.1c0 0-5.87-15.85-4.1-20.54s7-62.14-7.36-81.87z" opacity=".1"/><path fill="#f5f5f5" d="M634.45 543.63l63.14-59.2-16.92-18.38-31.42 23.47c-8.72 8.17-24.15 44.2-14.8 54.15z"/><path fill="#333" d="M745.17 321.63s-63.42-5.87-85.74 5.3c0 0-1.76 9.4 7.63 20.54s78.1-25.84 78.1-25.84z"/><path d="M745.17 321.63s-63.42-5.87-85.74 5.3c0 0-1.76 9.4 7.63 20.54s78.1-25.84 78.1-25.84z" opacity=".3"/><path fill="#e0e0e0" d="M636.46 327.93h61.06v8.53h-61.06z"/><path fill="#be7c5e" d="M675.3 339.25s-34.07-2.35-48.17 8.22-15.27 32.9-15.27 32.9l-41.1 120.38s-12.76 19.12-14.7 30.54c-.58 3.5 10 7.62 10 7.62l35.83-30 7-10s-7-11.16-2.36-14.1 52.85-99.24 52.85-99.24l61.7-4.06z"/><path d="M807.42 306.36s42.87 68.12-18.8 76.93h-48.15s-17.62 38.75-27 36.4-62.84-59.9-54.62-80.46l75.76-17.62s14.1-6.46 15.28-19.38z" opacity=".1"/><path fill="#333" d="M808.6 306.36s42.87 68.16-18.8 76.93h-48.15s-17.62 38.75-27 36.4-62.85-59.9-54.65-80.45l75.76-17.62s14.1-6.46 15.27-19.38z"/><path fill="#f5f5f5" d="M540.62 551.23l77.18-39.16-11.1-22.38-36.7 13.7c-10.66 5.4-35.55 35.66-29.37 47.83z"/><path fill="#be7c5e" d="M742.82 240l-14.68 23.52-35.24 52.27s-28.78 1.16-25.25 24.07 37.58-11.75 37.58-11.75l57-64.6z"/><path d="M742.82 240l-14.68 23.52-35.24 52.27s-28.78 1.16-25.25 24.07 37.58-11.75 37.58-11.75l57-64.6z" opacity=".1"/><circle cx="774.83" cy="114.62" r="35.24" fill="#be7c5e"/><path fill="#be7c5e" d="M757.5 133.12s31.13 28.2 13.5 57 43.47-19.38 43.47-19.38-21.14-35.27-16.47-56.4z"/><path d="M781 162.52s-8.22 12.92-19.38 16.44l-22.32 25.8s-18.8 16.45-7.63 37.6 17.62 73.4 17.62 73.4 55.2 0 68.1 7c0 0-11.15-51.1 4.12-86.92s-11.75-85.15-11.75-85.15z" opacity=".1"/><path fill="#f55f44" d="M781 161.3s-8.22 12.93-19.38 16.45L739.3 203.6s-18.8 16.43-7.63 37.57 17.62 73.4 17.62 73.4 55.2 0 68.1 7c0 0-11.15-51.08 4.12-86.9s-11.75-85.15-11.75-85.15z"/><path fill="#be7c5e" d="M803.9 220.04s-40.52 84-49.33 89.26-75.76 12.33-75.76 12.33-41.1 7.63-30-6.46 34.66-10.57 34.66-10.57l55.8-10.57 32.3-91z"/><path d="M785.7 180.1s-32.3 19.38-25.85 37c0 0 37-5.3 49.92 19.38 0 0 20.55-22.9 4.7-47.57 0 0-8.8-15.85-28.78-8.8z" opacity=".1"/><path fill="#f55f44" d="M785.7 178.93s-32.3 19.38-25.85 37c0 0 37-5.3 49.92 19.38 0 0 20.55-22.9 4.7-47.56 0 0-8.8-15.86-28.78-8.8z"/><path fill="#333" d="M758.9 110.97a3.9 3.9 0 0 1 4.1 3.86l4.4 16.86c2.1 8 4.2 16.13 4.2 24.4 0 24.5-18.74 45.64-40.44 57l22.2 5.84a17.15 17.15 0 0 0 6.74.84 14.2 14.2 0 0 0 5.26-2.17c9.44-5.77 16.2-15.2 20.68-25.32s6.85-21 9.2-31.84a106.12 106.12 0 0 1 13.22 42.24c1.5 16.13-.62 33.06 5.6 48 3.1 7.4 9 14.47 17 15.46a480.38 480.38 0 0 0 6.34-64.4c.15-4.78.2-9.62-.92-14.27-1-4.1-2.9-7.9-4.27-11.9-5.3-15.55-2.2-32.55.44-48.77s4.5-33.7-2.88-48.38c-4.26-8.46-12.23-15.7-21.68-16.34-9-.6-17.27 4.67-26.15 6.08s-17.7-1-26.56-.37a38.76 38.76 0 0 0-22.8 9.72c-4.85 4.34-8.7 10.3-8.77 16.82-.2 17.48 23.28 15.28 35.1 16.63z" opacity=".1"/><path fill="#333" d="M758.9 109.8a3.9 3.9 0 0 1 4.1 3.86l4.4 16.86c2.1 8 4.2 16.14 4.2 24.42 0 24.5-18.74 45.63-40.44 57l22.2 5.83a17.15 17.15 0 0 0 6.74.84 14.2 14.2 0 0 0 5.26-2.16c9.44-5.78 16.2-15.2 20.68-25.33s6.85-21 9.2-31.83a106.12 106.12 0 0 1 13.23 42.25c1.5 16.13-.62 33.06 5.6 48 3.1 7.4 9 14.47 17 15.46a480.38 480.38 0 0 0 6.34-64.4c.16-4.78.22-9.62-.9-14.27-1-4.1-2.9-7.9-4.28-11.9-5.32-15.54-2.2-32.54.43-48.76s4.5-33.7-2.88-48.38c-4.26-8.46-12.23-15.7-21.68-16.34-9-.6-17.28 4.67-26.16 6.08s-17.7-1-26.56-.37a38.76 38.76 0 0 0-22.77 9.65c-4.85 4.34-8.7 10.3-8.77 16.82-.23 17.55 23.25 15.35 35.08 16.7z"/></svg>