<svg xmlns="http://www.w3.org/2000/svg" width="909.67" height="748.22" xmlns:xlink="http://www.w3.org/1999/xlink"><defs><linearGradient id="a" x1="966.56" x2="966.56" y1="410.81" y2="349.8" gradientUnits="userSpaceOnUse"><stop offset="0" stop-color="#808080" stop-opacity=".25"/><stop offset=".54" stop-color="#808080" stop-opacity=".12"/><stop offset="1" stop-color="#808080" stop-opacity=".1"/></linearGradient><linearGradient id="b" x1="517.02" x2="517.02" y1="824.11" y2="75.89" xlink:href="#a"/><linearGradient id="c" x1="146.88" x2="321.94" y1="637.21" y2="637.21" xlink:href="#a"/><linearGradient id="d" x1="728.6" x2="728.6" y1="487.08" y2="484.08" xlink:href="#a"/><linearGradient id="e" x1="653.39" x2="653.39" y1="341.18" y2="183.08" xlink:href="#a"/></defs><title>hello</title><path fill="url(#a)" d="M986.7 360.7v-10.9h-54.46v50.4a10.62 10.62 0 0 0 10.62 10.6h33.23a10.62 10.62 0 0 0 10.6-10.6V389a14.16 14.16 0 1 0 0-28.33zm0 22.88v-17.44a8.72 8.72 0 1 1 0 17.43z" transform="translate(-146.88 -75.89)" opacity=".7"/><path fill="#d81b60" d="M838.12 286.5a12.93 12.93 0 1 0 12.93 12.94 12.93 12.93 0 0 0-12.93-12.93zm0 20.9a8 8 0 1 1 8-8 8 8 0 0 1-8 8z"/><path d="M838.12 286.5a12.93 12.93 0 1 0 12.93 12.94 12.93 12.93 0 0 0-12.93-12.93zm0 20.9a8 8 0 1 1 8-8 8 8 0 0 1-8 8z" opacity=".1"/><path fill="#d81b60" d="M788.34 276.56h49.74v46a9.75 9.75 0 0 1-9.75 9.75H798.1a9.75 9.75 0 0 1-9.76-9.74v-46z"/><path d="M829.12 276.56v46a9.7 9.7 0 0 1-9.7 9.7h5a9.7 9.7 0 0 0 9.7-9.7v-46z" opacity=".1"/><path fill="#eee" d="M798.12 239.48a2.9 2.9 0 0 0-2.2 1.12c-.65 1.18.53 2.52 1.6 3.33 2 1.5 4.1 3 5.46 5.07s1.78 5 .3 7c-1.93 2.62-6.55 3.2-7 6.4-.3 2.08 1.5 3.85 3.32 4.9 4.48 2.56 10.26 3.24 13.5 7.26 1.34-2.76 4.35-4.36 7.34-5s6.1-.63 9.14-1.1a3.16 3.16 0 0 0 2.54-1.35c.85-1.7-1.57-3.78-.73-5.5.63-1.32 2.5-1.2 3.85-1.74 2.22-.86 3.13-3.7 2.5-6s-2.4-4.1-4.28-5.56c-5-4-11.1-6.3-17.23-8-2.85-.78-6.2-2-9.16-2.12s-6.1.82-8.96 1.3z"/><path fill="none" stroke="#e0e0e0" stroke-width="8" stroke-miterlimit="10" d="M449.06 344.02l-104 324"/><path fill="url(#b)" d="M676.52 780.4c-12.8.74-24.2 11.46-24.2 11.46l-5.5-13.67-.45.14c2.7-11.78 57.47-254.72 2.63-275.66-42.13-16.1-86.82-36-121.84-35.26V410h49.1v-2h38.85c7.46-5.32-3.37-9-15.46-11.27a11.06 11.06 0 0 0 1.3-1.83l62.24-111.67s14.32-23.52 5.1-34.77-22.5 28.64-22.5 28.64l-51.12 73.63s-51.66-53.8-84.44-80.56a57.47 57.47 0 0 0-12.22-9.24c-6-4.05-10.53-6.16-12.77-5.33h-.06a57.3 57.3 0 0 0-15.28-2.08h-4.1v-8.4a65.6 65.6 0 0 0 40.53-38.4 73.7 73.7 0 0 0 5.84-64.16 4.26 4.26 0 0 0 1.72-.6c1.84-1.2 2-3.8 1.85-6a45.56 45.56 0 0 0-23.12-35.62c-5.18-2.83-11.12-4.8-14.94-9.3-3.3-3.86-4.67-9.27-8.65-12.43-4.72-3.74-11.54-3.1-17.33-1.42a63.06 63.06 0 0 0-18.1 8.54c-6.25 4.3-11.9 9.8-19.12 12.18-5.12 1.7-10.68 1.65-15.84 3.24a26.6 26.6 0 0 0-17.12 16.7 34.75 34.75 0 0 0-1.46 13 73.22 73.22 0 0 0-7.35 16.7l-1.16.63 1.12-.5a73.62 73.62 0 0 0 20.73 75.1 65.55 65.55 0 0 0 31.45 22.3v10.16a77.33 77.33 0 0 0-25.1 10.28s-.65.4-1.77 1.17l-.33.23c-7.57 5.14-32.93 23.9-32.07 44.18q0 1.17 0 2.35a78 78 0 0 0-2.1 17.88v147.24a72.28 72.28 0 0 0 15.5 44.83c-21.34 4.78-34.94 12-34.94 20.1a6.55 6.55 0 0 1 0 2c0 14.4 43 26.1 96.13 26.1 6.4 0 12.68-.18 18.75-.5l60 48.55-96.1 154.48s-31.7 24.54-7.16 32.73 74.65 14.32 74.65 14.32 8.18-14.32-3.07-20.45-26.6-3.07-26.6-3.07l2-12.27S629.4 642.18 594.63 593.1c-6.65-9.4-13.3-19.08-20-28.62l26.24 2.4 6 224.75.75-.24c-1.5 4.4-12.1 37.73 11.4 32.1 25.17-6 70.94-27.34 70.94-27.34s-.63-16.5-13.42-15.76zM576.25 393.66l-49.1-14.25v-42l53.36 56.6c-2.6-.2-4.25-.34-4.25-.34z" transform="translate(-146.88 -75.89)" opacity=".7"/><circle cx="298.06" cy="99.02" r="72"/><path fill="#d81b60" d="M380.06 264.02L435 322.35a10.73 10.73 0 0 0 17.2-2.13l60.86-109.2-17-6-50 72s-93.87-97.83-107-93 41 80 41 80z"/><path fill="none" stroke="#bdbdbd" stroke-width="5" stroke-miterlimit="10" d="M275.06 466.02l-81 210M315.06 466.02l81 210"/><ellipse cx="295.06" cy="467.52" fill="#b84733" rx="94" ry="25.5"/><ellipse cx="295.06" cy="465.52" fill="#f55f44" rx="94" ry="25.5"/><path fill="none" stroke="#bdbdbd" stroke-width="5" stroke-miterlimit="10" d="M255.5 512.15l88.7 27.33M334.6 512.15l-88.68 27.33"/><path fill="#d81b60" d="M296.15 182h27.9a56 56 0 0 1 56 56v148h-160V258.1a76.1 76.1 0 0 1 76.1-76.1z"/><path fill="#39447a" d="M220.06 386h160v87h-89a71 71 0 0 1-71-71v-16z"/><path d="M222.22 242.06l97.84 93h108v-14l-93-27-79.55-98.24s-36.12 22.3-33.28 46.24z" opacity=".05"/><path fill="#d81b60" d="M222.22 240.06l97.84 93h108v-14l-93-27-79.55-98.24s-36.12 22.3-33.28 46.24z"/><path fill="#fda57d" d="M428.06 319.02s52 4 38 14h-38zM496.06 205.02s13-39 22-28-5 34-5 34z"/><path d="M220.06 386.02v4.66l160 .34v-5h-160z" opacity=".05"/><path fill="#39447a" d="M344.52 478.56l107.6 9.8 5.86 219.75 38.53-12.53s57.64-249 2.7-270-114.36-48.63-149.82-26.1-4.86 79.1-4.86 79.1z"/><path d="M351.06 411.02s59 30 67 64" opacity=".1"/><path fill="#39447a" d="M288.06 472.02l84 68-94 151 39 11s163-140 129-188-68-104-110-105-48 63-48 63z"/><path d="M420.06 251.02l21 36 5-10-26-26z" opacity=".05"/><path fill="#333" d="M278.06 691.02s-31 24-7 32 73 14 73 14 8-14-3-20-26-3-26-3l2-12zM458.88 707.43s-13.62 37.76 11 31.86 69.36-26.74 69.36-26.74-.6-16.1-13.12-15.4-23.65 11.2-23.65 11.2l-5.4-13.36z"/><rect width="40" height="60" x="280.06" y="147.02" fill="#fda57d" rx="20" ry="20"/><path d="M300.06 149.02a20 20 0 0 0-20 20v6.8a64 64 0 0 0 40 0v-6.8a20 20 0 0 0-20-20z" opacity=".05"/><circle cx="300.06" cy="113.02" r="64" fill="#fda57d"/><path d="M236.06 110.1s16 4.13 25-14.05 16-28.1 53-17.36 44.44 12.05 46.22 1.9c1.22-6.95-11.94-23.82-20.4-33.8-4.12-4.87-10.85-7.78-18-7.78h-41.82l-25 11.57-19 16.52-4 22.32z" opacity=".05"/><path d="M236.06 108.1s16 4.13 25-14.05 16-28.1 53-17.36 44.44 12.05 46.22 1.9c1.22-6.95-11.94-23.82-20.4-33.8-4.12-4.87-10.85-7.78-18-7.78h-41.82l-25 11.57-19 16.52-4 22.32z"/><ellipse cx="242.56" cy="108.02" fill="#fda57d" rx="6.5" ry="13"/><path d="M237.9 74.57c-1.47-8.37-2.93-17.16-.23-25.22a26 26 0 0 1 16.74-16.32c5-1.55 10.5-1.52 15.5-3.17 7.05-2.32 12.58-7.7 18.7-11.9a61.66 61.66 0 0 1 17.7-8.36c5.66-1.64 12.33-2.27 16.95 1.4 3.88 3.1 5.23 8.38 8.44 12.16 3.73 4.4 9.53 6.3 14.6 9.08a44.54 44.54 0 0 1 22.6 34.87c.16 2.16 0 4.7-1.83 5.87a6.48 6.48 0 0 1-3.65.67c-25.58-.37-51.2-.73-76.66-3.08-7.92-.73-15.85-1.65-23.8-1.35a77.85 77.85 0 0 0-35 9.9"/><path fill="url(#c)" d="M320.88 594.15a34 34 0 0 0-13.47-36c-3-2-6.27-3.53-9-5.84-4.55-3.83-7.16-9.5-9.04-15.17-4.52-13.58-5.95-28.8-13.88-41.08-7.22-11.17-21.27-14.44-33.74-15.55-4.54-.4-9.3-.62-13.46 1.26-6.95 3.14-10.26 11.35-10.57 19s1.68 15.14 2.18 22.74-.86 16-6.48 21.14-13.65 5.77-21.1 6.8a139.7 139.7 0 0 0-28.6 7.1c-7.76 2.83-16.4 7.93-16.78 16.2-.3 6.74 5.15 12.13 9.24 17.5 7.65 10 11.47 23.3 8.88 35.64-2.64 12.57-11.47 23.36-13.08 36.1-.4 3.25-.3 6.7 1.28 9.55a17.45 17.45 0 0 0 4.83 5.1c4.8 3.72 10.16 6.7 14.7 10.72 9.47 8.4 14.6 20.56 18.55 32.58.38 1.16.72 2.33 1.08 3.5h-9.3a34.53 34.53 0 0 0-34.44 34.42 34.53 34.53 0 0 0 34.43 34.43h93a34.53 34.53 0 0 0 34.42-34.43 34.53 34.53 0 0 0-34.52-34.5h-25.46c6-8.06 12.32-15.64 21.62-18.75s20.55-1.28 27.85-7.77c3.57-3.16 5.46-7.84 6.33-12.52a37.3 37.3 0 0 0-4.08-24.75c-2.93-5.23-7.2-10-8.14-15.9-.78-5.06 1-10.2 3.52-14.68 7.03-12.8 19.47-22.72 23.26-36.82z" transform="translate(-146.88 -75.89)" opacity=".7"/><path fill="#4db6ac" d="M94.5 412.06c-4.33-.4-8.87-.6-12.83 1.2-6.6 3-9.77 10.8-10.07 18.06s1.6 14.4 2.06 21.66-.82 15.22-6.17 20.13-13 5.5-20.1 6.48a133 133 0 0 0-27.23 6.76c-7.4 2.7-15.64 7.56-16 15.42-.28 6.43 4.9 11.56 8.8 16.67 7.3 9.57 10.92 22.18 8.45 33.94-2.52 12-10.93 22.25-12.45 34.4-.4 3.07-.28 6.35 1.22 9.07a16.6 16.6 0 0 0 4.6 4.87c4.56 3.54 9.66 6.38 14 10.2 9 8 13.9 19.6 17.65 31a251.28 251.28 0 0 1 8.67 34.45c7.77-5 17.8-4.92 26.1-9 17.65-8.65 23.6-33.73 42.23-40 8.82-2.95 19.57-1.22 26.52-7.4 3.4-3 5.2-7.46 6-11.92a35.5 35.5 0 0 0-3.85-23.53c-2.8-5-6.87-9.5-7.76-15.14-.76-4.82 1-9.7 3.34-14 6.7-12.18 18.55-21.63 22.16-35.06a32.37 32.37 0 0 0-12.83-34.32c-2.83-1.9-6-3.36-8.6-5.56-4.35-3.66-6.82-9.06-8.62-14.45-4.3-12.93-5.66-27.44-13.2-39.12-6.86-10.62-20.24-13.74-32.1-14.8z"/><path fill="none" stroke="#535461" stroke-miterlimit="10" d="M94.36 412.5s16.4 219.6-26.24 257.36" opacity=".6"/><rect width="154.09" height="65.57" x="5.85" y="645.27" fill="#d81b60" rx="32.78" ry="32.78"/><path fill="none" stroke="#535461" stroke-miterlimit="10" d="M4.2 497.74s41.92-4.9 93.1 26.24M96.47 550.2s23.3-38.53 73.3-45.9M8.3 587.1s58.1-9.84 84.8 6.56M89.78 616.16s30.4-13.8 64.62-2.6" opacity=".6"/><path fill="url(#d)" d="M728.6 487.08a1.5 1.5 0 0 0 0-3 1.5 1.5 0 0 0 0 3z" transform="translate(-146.88 -75.89)"/><path fill="none" stroke="#e0e0e0" stroke-width="8" stroke-miterlimit="10" d="M801.82 344.02l104 370.1"/><path fill="#e0e0e0" d="M344.63 333.18h561.6v21.88h-561.6z"/><rect width="92" height="13" x="483.06" y="328.02" fill="#535461" rx="6.5" ry="6.5"/><rect width="228.66" height="158.1" x="539.06" y="183.08" fill="url(#e)" rx="28.22" ry="28.22" opacity=".7"/><rect width="216.61" height="155.18" x="543.13" y="185.99" fill="#3e3f49" rx="26.84" ry="26.84"/><rect width="216.61" height="155.18" x="546.13" y="185.99" fill="#535461" rx="26.84" ry="26.84"/><circle cx="664.56" cy="262.52" r="7" fill="#e0e0e0"/></svg>